<?xml version="1.0" encoding="utf-8"?>
<!-- Generator: Adobe Illustrator 26.2.1, SVG Export Plug-In . SVG Version: 6.00 Build 0)  -->
<svg version="1.1" id="Layer_1" xmlns="http://www.w3.org/2000/svg" xmlns:xlink="http://www.w3.org/1999/xlink" x="0px" y="0px"
	 viewBox="0 0 2000 276.1" style="enable-background:new 0 0 2000 276.1;" xml:space="preserve">
<style type="text/css">
	.st0{fill-rule:evenodd;clip-rule:evenodd;fill:url(#XMLID_00000154426280962373986440000004516298254731356071_);}
	.st1{fill:#006EAA;}
	.st2{fill:#818D98;}
</style>
<g>
	
		<radialGradient id="XMLID_00000072992865610213447610000010732712040979547026_" cx="344.063" cy="412.0625" r="102.5213" fx="328.2477" fy="388.8752" gradientTransform="matrix(0.9672 0 0 0.9672 -196.8226 -252.5713)" gradientUnits="userSpaceOnUse">
		<stop  offset="0" style="stop-color:#FFFFFF"/>
		<stop  offset="0.3327" style="stop-color:#A6CCE1"/>
		<stop  offset="0.7952" style="stop-color:#3089BA"/>
		<stop  offset="1" style="stop-color:#006EAA"/>
	</radialGradient>
	
		<path id="XMLID_9_" style="fill-rule:evenodd;clip-rule:evenodd;fill:url(#XMLID_00000072992865610213447610000010732712040979547026_);" d="
		M36.8,146c0,54.8,44.4,99.2,99.1,99.2c54.8,0,99.2-44.4,99.2-99.2c0-54.7-44.4-99.2-99.2-99.2l0,0C81.2,46.8,36.8,91.2,36.8,146
		L36.8,146L36.8,146z"/>
	<path class="st1" d="M438.8,12.9l-70.9,190.7c-12,31.2-17.2,44.4-37.7,45.8v10.5c10.8-0.3,21.3-1,32.1-1c10.8,0,21.3,0.7,32.5,1
		V249c-11.6-1-19.4-2.1-19.4-11.5c0-4.4,2.2-11.5,4.1-16.6l17.5-49.5h70.2l16.4,55.6c1.1,4.1,2.6,8.8,2.6,12.5
		c0,9.2-8.2,9.5-20.9,9.5v10.9c15.7-0.3,28-1,42.2-1c13.8,0,27.2,0.7,40.7,1V249c-16.4-1.4-18.3-2.7-26.1-25.8L453,12.9H438.8
		L438.8,12.9z M462.7,157.8L462.7,157.8h-60.8l32.8-94L462.7,157.8L462.7,157.8z"/>
	<path class="st1" d="M669,214.4c-9.3,15.6-21.3,26.5-39.2,26.5c-32.1,0-46.7-35.3-46.7-73.6c0-31.9,11.6-65.8,38.4-65.8
		c8.2,0,15.7,4.1,18.3,12.9c1.1,4.4,1.1,9.1,1.9,13.6c0.4,3.1,1.9,13.3,16,13.3c7.5,0,19.4-4.4,19.4-16.3
		c0-16.6-22.8-35.3-53.8-35.3c-44,0-73.5,37.3-73.5,91.6c0,19.3,2.6,50.2,25.4,68.2c10.4,8.5,25.7,13.6,41,13.6
		c38.8,0,54.5-27.1,64.2-43.8L669,214.4L669,214.4z"/>
	<path class="st1" d="M814.6,214.4c-9.3,15.6-21.3,26.5-39.2,26.5c-32.1,0-46.7-35.3-46.7-73.6c0-31.9,11.6-65.8,38.5-65.8
		c8.2,0,15.7,4.1,18.3,12.9c1.1,4.4,1.1,9.1,1.9,13.6c0.4,3.1,1.9,13.3,16,13.3c7.5,0,19.4-4.4,19.4-16.3
		c0-16.6-22.8-35.3-53.8-35.3c-44,0-73.5,37.3-73.5,91.6c0,19.3,2.6,50.2,25.4,68.2c10.4,8.5,25.7,13.6,41,13.6
		c38.8,0,54.5-27.1,64.2-43.8L814.6,214.4L814.6,214.4z"/>
	<path class="st1" d="M961.7,215.4c-5.2,8.1-16.8,26.1-38.8,26.1c-16,0-24.6-7.5-29.5-12.6c-17.9-18.3-19-43.8-19.8-60.7h98.5
		c-0.4-20.4-0.4-46.2-20.9-64.5c-10.8-9.1-26.1-14.6-42.6-14.6c-15.7,0-39.2,5.4-54.1,29.5c-11.2,18.3-14.2,40.7-14.2,60
		c0,50.5,24.2,82.8,67.9,82.8c44.4,0,58.6-28.8,64.9-42.1L961.7,215.4L961.7,215.4z M873.6,156.4L873.6,156.4
		c1.9-19.3,6-54.3,35.1-54.3c28.4,0,29.5,34.6,29.8,54.3H873.6L873.6,156.4z"/>
	<path class="st1" d="M1053.1,191c17.9,8.5,29.5,15.6,29.5,31.9c0,14.3-11.2,27.5-32.1,27.5c-11.2,0-20.5-4.1-27.2-10.9
		c-10.4-10.9-11.6-25.4-12.3-36.6h-14.6v48.5c14.9,5.5,29.5,10.9,51.1,10.9c49.7,0,63.5-29.2,63.5-50.2c0-28.5-17.2-39.7-33.6-48.2
		c-10.8-5.4-22-9.8-32.8-15.2c-8.2-4.1-19.4-9.5-19.4-24.1c0-9.2,6.4-23.1,29.1-23.1c29.5,0,32.1,23.1,33.6,35.6h13.8V95.7
		c-15.7-3.1-32.1-6.1-47.4-6.1c-23.9,0-36.2,7.8-41.4,12.6c-9.7,8.5-15.3,22.4-15.3,35.6c0,27.1,23.1,38,35.8,44.1L1053.1,191
		L1053.1,191z"/>
	<path class="st1" d="M1190,191c17.9,8.5,29.5,15.6,29.5,31.9c0,14.3-11.2,27.5-32.1,27.5c-11.2,0-20.5-4.1-27.2-10.9
		c-10.4-10.9-11.6-25.4-12.3-36.6h-14.6v48.5c15,5.5,29.5,10.9,51.2,10.9c49.6,0,63.4-29.2,63.4-50.2c0-28.5-17.2-39.7-33.6-48.2
		c-10.8-5.4-22-9.8-32.9-15.2c-8.2-4.1-19.4-9.5-19.4-24.1c0-9.2,6.3-23.1,29.1-23.1c29.5,0,32.1,23.1,33.6,35.6h13.8V95.7
		c-15.6-3.1-32.1-6.1-47.4-6.1c-23.9,0-36.2,7.8-41.4,12.6c-9.7,8.5-15.3,22.4-15.3,35.6c0,27.1,23.1,38,35.8,44.1L1190,191
		L1190,191z"/>
	<path class="st2" d="M1269.7,28.5c23.5,1,23.5,9.5,23.9,28.5v170c-0.4,16.6-4.8,20.7-23.9,21.7v11.2c13.8-0.7,27.6-1,41.1-1
		c9.3,0,51.1,1,59.3,1c22.4,0,56.4-0.7,76.2-31.6c5.6-8.8,9.7-20,9.7-33.2c0-15.9-6.4-31.5-18.7-43.1
		c-16.1-15.6-34.4-18.3-50.8-20.7c13.4-4.1,53-17,53-58.7c0-13.3-4.5-26.8-14.2-36.3c-17.9-18.6-46.7-19-61.2-19
		c-4.1,0-14.9,0.3-25.8,0.7c-10.8,0.3-21.7,0.7-25.4,0.7c-14.2,0-28.7-0.7-43.3-1.4V28.5L1269.7,28.5z M1329.1,127.2L1329.1,127.2
		V51.6c0-10.9,0-21.7,23.1-21.7c18.6,0,50,3.7,50,47.1c0,48.2-32.8,49.6-51.1,50.2H1329.1L1329.1,127.2z M1348.5,139.8L1348.5,139.8
		c26.5,0,68.7,2,68.7,52.9c0,19-7.5,38.3-25.3,47.8c-11.6,6.1-23.9,6.8-34.7,6.8c-19,0-28-1.7-28-20.3v-87.2H1348.5L1348.5,139.8z"
		/>
	<path class="st2" d="M1568.2,157.8c-22.4,2-46.7,4.4-64.6,14.3c-19.8,10.8-28,27.8-28,44.4c0,24.1,17.9,44.4,44.4,44.4
		c21.3,0,38.1-12.9,48.5-21c1.9,12.9,9.3,21,23.5,21c13.8,0,25.3-8.2,34.7-14.9l-7.5-8.8c-3.3,2-7.1,4.4-11.6,4.4
		c-6.7,0-7.1-6.5-7.1-9.5v-92.6c0-10.5,0-29.5-17.9-40.4c-10.1-6.1-25.4-8.5-38.1-8.5c-41.4,0-60.8,21.7-60.8,36.3
		c0,11.2,10.5,14.6,17.2,14.6c17.9,0,18.3-13.3,18.3-16.6c0-4.8,0-8.5,3.4-13.3c4.1-5.8,11.6-10.2,20.9-10.2
		c24.7,0,24.7,22.1,24.7,31.2V157.8L1568.2,157.8z M1568.2,228L1568.2,228c-7.5,5.1-17.9,11.9-30.6,11.9
		c-17.2,0-29.1-13.3-29.1-30.9c0-33.6,35.4-38,59.7-41V228L1568.2,228z"/>
	<path class="st2" d="M1639.4,111.3c14.6,0.3,20.6,1.4,20.9,14.9V228c-0.3,15.3-1.4,19-20.9,19.7v11.9c11.2-0.7,23.1-1.4,34.3-1.4
		c13.1,0,26.1,0.7,39.2,1.4v-11.9c-19.1-0.4-19.1-4.4-19.4-30.2v-88.5c8.6-7.1,20.9-18,38.1-18c23.5,0,23.9,22,24.3,31.9v79.7
		c-0.8,22.7-2.3,24.4-19.4,25.8v11.2c11.6-0.7,23.5-1.4,35.1-1.4c12.7,0,23.9,0.7,37.3,1.4v-11.2c-18.7-0.3-20.2-4.4-19.8-21.4v-93
		c-0.4-10.5-0.7-25.1-14.9-35c-8.2-5.8-19.4-8.1-28.7-8.1c-22.4,0-39.6,12.9-53.4,23.4V89.9h-11.6c-1.9,1-3.8,2-5.6,2.7
		c-10.4,5.4-23.8,6.4-35.4,7.1V111.3L1639.4,111.3z"/>
	<path class="st2" d="M1824.2,19.7c19.4,0,19.4,4.8,19.8,26.5v167.6c-0.4,31.5-0.4,35.6-20.1,35.3v11.2c12.7-0.7,25-1.4,37.7-1.4
		c11.6,0,22,0.4,35.4,1.4v-10.5c-16.8-0.4-19.4-4.8-19.4-21.7v-57c7.1-0.3,8.6,0.4,13.8,5.4l39.2,53.2c4.1,5.8,7.5,10.2,7.5,13.6
		c0,6.1-8.2,6.5-11.9,6.5v10.5c10.8-0.7,21.2-1.4,34.3-1.4c11.6,0,24.6,0.7,39.6,1.4v-10.5c-10.5,0-16.4-1-25-13.2
		c-16.4-23.1-38.1-52.6-60.1-82.1l36.9-35.3c10.8-10.2,17.6-14.3,33.6-15.6V92.6c-10.8,0.7-22,1.4-32.9,1.4
		c-11.2,0-22.8-0.7-33.6-1.4v10.9c5.3-0.3,15,0,15,6.5c0,3.4-4.9,9.2-8.2,12.9c-9.3,10.2-33.2,34.6-39.2,37.7c-3.7,2-6.3,2-9,1.7V0
		H1866c-2.3,1-4.5,2.4-7.1,3.4c-9.7,3.7-28,4.8-34.7,5.1V19.7L1824.2,19.7z"/>
	<path class="st2" d="M108.5,18.6c41.8-8.9,87,2.8,119.4,35.3c50.9,50.9,51.4,133.1,0.5,184l-2.7,2.7l46.3-0.1v18.8h-78.3v-78.3
		h18.8l0,46.1c0.3-0.4,2.3-2.3,2.3-2.3c43.6-43.6,43.6-114.2,0-157.8c-28.8-28.8-69.4-38.6-106.2-29.3L108.5,18.6L108.5,18.6z"/>
	<path class="st1" d="M163.5,273.3c-41.8,8.9-87-2.8-119.5-35.2C-6.9,187.1-7.4,104.8,43.5,53.9l2.7-2.7L0,51.3V32.5h78.3v78.3H59.5
		l0-46.1c-0.3,0.3-2.3,2.2-2.3,2.2c-43.6,43.6-43.6,114.2,0,157.8c28.8,28.8,69.4,38.6,106.2,29.3L163.5,273.3L163.5,273.3z"/>
</g>
</svg>
