<?xml version="1.0" encoding="utf-8"?>
<!-- Generator: Adobe Illustrator 24.3.0, SVG Export Plug-In . SVG Version: 6.00 Build 0)  -->
<svg version="1.2" baseProfile="tiny" xmlns="http://www.w3.org/2000/svg" xmlns:xlink="http://www.w3.org/1999/xlink" x="0px"
	 y="0px" viewBox="0 0 30 30" overflow="visible" xml:space="preserve">
<g id="Layer_1">
	<g>
		<path fill="#CBD1D8" d="M25.5,15c0,0.9-0.1,1.7-0.3,2.5c-1.1,4.6-5.3,8-10.2,8C9.2,25.5,4.5,20.8,4.5,15c0-0.5,0-1.1,0.1-1.6
			c0.5-3.4,2.7-6.3,5.6-7.8c1.4-0.7,3-1.1,4.7-1.1c2.6,0,4.9,0.9,6.7,2.4C24,8.9,25.5,11.8,25.5,15z"/>
		<path fill="#5E6873" d="M15.2,18.1C15.2,18.2,15.2,18.2,15.2,18.1l-1.1,0.9c-0.3,0.3-0.6,0.6-0.7,1L13,21.3c0,0.1,0,0.1-0.1,0.2
			l-0.4,0.4c-0.3,0.4-0.5,0.8-0.5,1.3c0,0.1-0.1,0.2-0.2,0.3c0,0,0,0,0,0c0,0,0,0,0,0l-0.3-2.1c-0.1-0.3-0.2-0.6-0.4-0.8l-1.2-1.7
			c-0.1-0.1-0.2-0.3-0.2-0.4L9.3,17c-0.2-0.6-0.6-1.1-1.3-1.3l-0.1,0c-0.1,0-0.3-0.1-0.4-0.2l-0.8-0.7c-0.1-0.1-0.2-0.2-0.3-0.3
			c-0.4-0.7-1.2-1.1-1.9-1c0.5-3.4,2.7-6.3,5.6-7.8l0.9,0.7c0.1,0.1,0.2,0.2,0.3,0.2c0.4,0.2,0.7,0.5,1,0.9l0.7,1.1
			c0.2,0.3,0.2,0.8,0,1.1l-0.3,0.5c-0.1,0.2-0.3,0.2-0.5,0.2l-0.4,0c-0.6-0.1-1.3,0.2-1.6,0.8c-0.1,0.2-0.3,0.3-0.5,0.3L9,11.2
			c-0.6-0.1-1.3,0.2-1.6,0.8c-0.3,0.5-0.4,1.2,0,1.7l0.6,0.9c0.4,0.7,1.2,0.9,1.9,0.5l0.6-0.3c0.3-0.2,0.6-0.1,0.8,0l1.1,0.7
			c0.1,0.1,0.2,0.1,0.3,0.1c0.4,0,0.8,0.2,1.1,0.6l0.6,0.8c0,0.1,0.1,0.1,0.1,0.2L15.2,18.1C15.2,18,15.2,18.1,15.2,18.1z"/>
		<path fill="#9EA9B8" d="M25.5,15c0,0.9-0.1,1.7-0.3,2.5l-0.1,0H25l-0.3,0c-0.8,0-1.5,0.5-1.8,1.3L22.9,19
			c-0.2,0.4-0.6,0.7-1.1,0.7h-1.1c-0.1,0-0.2-0.1-0.3-0.2l0-0.5c-0.1-0.6-0.4-1.2-0.9-1.6c-0.1-0.1-0.2-0.2-0.2-0.3v-0.5
			c0-0.2,0.1-0.3,0.2-0.5l1.9-1.7c0.6-0.6,0.9-1.5,0.6-2.3c-0.3-0.8-1-1.5-1.8-1.6l-0.2,0c-0.2,0-0.3-0.1-0.4-0.2
			c-0.1-0.1-0.1-0.2,0-0.3L20,9.3c0.5-0.9,1-1.6,1.7-2.4c0,0,0,0,0,0l0,0C24,8.9,25.5,11.8,25.5,15z"/>
	</g>
</g>
<g id="Layer_2">
</g>
<g id="Layer_3">
</g>
<g id="Layer_4">
</g>
<g id="Layer_5">
</g>
<g id="Layer_6">
</g>
<g id="Layer_7">
</g>
<g id="Layer_8">
</g>
<g id="Layer_9">
</g>
<g id="Layer_10">
</g>
<g id="Layer_11">
</g>
<g id="Layer_12">
</g>
<g id="Layer_13">
</g>
<g id="Layer_14">
</g>
<g id="Layer_15">
</g>
<g id="Layer_16">
</g>
<g id="Layer_18">
</g>
<g id="Layer_19">
</g>
<g id="Layer_20">
</g>
</svg>
