<?xml version="1.0" encoding="utf-8"?>
<!-- Generator: Adobe Illustrator 24.3.0, SVG Export Plug-In . SVG Version: 6.00 Build 0)  -->
<svg version="1.1" baseProfile="basic" id="Layer_1"
	 xmlns="http://www.w3.org/2000/svg" xmlns:xlink="http://www.w3.org/1999/xlink" x="0px" y="0px" viewBox="0 0 63.872 30"
	 xml:space="preserve">
<g>
	<g>
		<path fill="#2362A9" d="M36.755,7.794v14.043h-3.183V10.811h-0.79V7.794H36.755z"/>
		<path fill="#2362A9" d="M44.912,12.537c1.387,0,2.496,0.42,3.328,1.259c0.832,0.84,1.248,1.952,1.248,3.339
			c0,1.554-0.496,2.777-1.487,3.672c-0.991,0.896-2.354,1.343-4.088,1.343c-1.928,0-3.578-0.59-4.951-1.769l1.852-2.518
			c0.929,0.93,1.955,1.394,3.079,1.394c0.721,0,1.286-0.197,1.695-0.593s0.613-0.939,0.613-1.633c0-0.638-0.177-1.141-0.53-1.509
			c-0.354-0.367-0.85-0.551-1.487-0.551c-0.805,0-1.429,0.347-1.872,1.04h-2.476l0.728-8.218h7.531v2.788h-5.305l-0.271,2.642h0.062
			C43.164,12.767,43.94,12.537,44.912,12.537z"/>
		<path fill="#2362A9" d="M55.147,7.794v14.043h-3.183V10.811h-0.79V7.794H55.147z"/>
	</g>
	<g>
		<g>
			<g>
				<path fill="#2362A9" d="M13.252,13.001h-1.491c0.252-3.433,3.125-6.149,6.621-6.149c2.766,0,5.27,1.742,6.229,4.336
					c0.145,0.391,0.579,0.59,0.969,0.446c0.391-0.145,0.59-0.579,0.446-0.969c-0.572-1.546-1.588-2.869-2.938-3.825
					c-1.381-0.979-3.009-1.496-4.707-1.496c-2.176,0-4.223,0.848-5.762,2.387c-1.519,1.519-2.364,3.532-2.386,5.677
					c-0.902,0.522-1.51,1.497-1.51,2.613v2.565c0,1.664,1.354,3.018,3.018,3.018h1.509c0.417,0,0.754-0.338,0.754-0.754v-7.092
					C14.007,13.338,13.669,13.001,13.252,13.001z M12.498,20.093h-0.754c-0.832,0-1.509-0.677-1.509-1.509v-2.565
					c0-0.832,0.677-1.509,1.509-1.509h0.754V20.093z"/>
				<path fill="#2362A9" d="M25.022,13.001h-1.509c-0.417,0-0.754,0.338-0.754,0.754v5.168v1.924v0.792
					c0,0.416-0.338,0.754-0.754,0.754h-2.301v0.024c-0.257-0.464-0.752-0.778-1.32-0.778c-0.833,0-1.509,0.676-1.509,1.509
					s0.676,1.509,1.509,1.509c0.568,0,1.063-0.314,1.32-0.778v0.024h2.301c1.248,0,2.263-1.015,2.263-2.263v-0.038h0.754
					c1.664,0,3.018-1.354,3.018-3.018v-2.565C28.04,14.354,26.686,13.001,25.022,13.001z M26.531,18.584
					c0,0.832-0.677,1.509-1.509,1.509h-0.754v-1.169V14.51h0.754c0.832,0,1.509,0.677,1.509,1.509V18.584z"/>
			</g>
		</g>
	</g>
</g>
</svg>
