<?xml version="1.0" encoding="utf-8"?>
<!-- Generator: Adobe Illustrator 24.3.0, SVG Export Plug-In . SVG Version: 6.00 Build 0)  -->
<svg version="1.2" baseProfile="tiny" id="Layer_1" xmlns="http://www.w3.org/2000/svg" xmlns:xlink="http://www.w3.org/1999/xlink"
	 x="0px" y="0px" viewBox="0 0 15 20" overflow="visible" xml:space="preserve">
<g>
	<path fill="#9EA9B8" d="M7.5,0C3.36,0,0,3.36,0,7.5c0,5.2,6.77,12.03,7.06,12.32C7.18,19.94,7.34,20,7.5,20
		c0.16,0,0.32-0.06,0.44-0.18C8.23,19.53,15,12.7,15,7.5C15,3.36,11.64,0,7.5,0z M7.5,11.25c-2.07,0-3.75-1.68-3.75-3.75
		S5.43,3.75,7.5,3.75s3.75,1.68,3.75,3.75S9.57,11.25,7.5,11.25z"/>
</g>
</svg>
