<?xml version="1.0" encoding="utf-8"?>
<!-- Generator: Adobe Illustrator 24.3.0, SVG Export Plug-In . SVG Version: 6.00 Build 0)  -->
<svg version="1.2" baseProfile="tiny" xmlns="http://www.w3.org/2000/svg" xmlns:xlink="http://www.w3.org/1999/xlink" x="0px"
	 y="0px" viewBox="0 0 30 30" overflow="visible" xml:space="preserve">
<g id="Layer_1">
	<g>
		<path fill="#9EA9B8" d="M19.3,17.8c1.1-1.5,1.7-3.5,1.4-5.6c-0.5-3.4-3.3-6-6.6-6.4c-4.7-0.5-8.7,3.4-8.3,8.1
			c0.3,3.4,2.9,6.2,6.3,6.8c2.1,0.3,4.2-0.2,5.7-1.4l4.6,4.6c0.4,0.4,1.1,0.4,1.5,0l0,0c0.4-0.4,0.4-1.1,0-1.5L19.3,17.8z
			 M13.3,18.7c-3.3,0-5.9-3-5.3-6.4c0.4-2.1,2.1-3.8,4.2-4.2c3.4-0.7,6.4,1.9,6.4,5.3c0,1.1-0.3,2.1-0.9,3c-0.4,0.6-0.9,1.1-1.5,1.5
			C15.4,18.3,14.4,18.7,13.3,18.7z"/>
	</g>
</g>
<g id="Layer_2">
</g>
<g id="Layer_3">
</g>
<g id="Layer_4">
</g>
<g id="Layer_5">
</g>
<g id="Layer_6">
</g>
<g id="Layer_7">
</g>
<g id="Layer_8">
</g>
<g id="Layer_9">
</g>
<g id="Layer_10">
</g>
<g id="Layer_11">
</g>
<g id="Layer_12">
</g>
<g id="Layer_13">
</g>
<g id="Layer_14">
</g>
<g id="Layer_15">
</g>
<g id="Layer_16">
</g>
<g id="Layer_18">
</g>
<g id="Layer_19">
</g>
<g id="Layer_20">
</g>
</svg>
