<?xml version="1.0" encoding="utf-8"?>
<!-- Generator: Adobe Illustrator 24.3.0, SVG Export Plug-In . SVG Version: 6.00 Build 0)  -->
<svg version="1.1" baseProfile="basic" xmlns="http://www.w3.org/2000/svg" xmlns:xlink="http://www.w3.org/1999/xlink" x="0px"
	 y="0px" viewBox="0 0 30 30" xml:space="preserve">
<g id="Layer_1">
	<g>
		<path fill="#9EA9B8" d="M18.96,5.221h-7.909c-3.212,0-5.83,2.618-5.83,5.83v7.909c0,3.212,2.618,5.819,5.83,5.819h7.909
			c3.212,0,5.819-2.607,5.819-5.819v-7.909C24.779,7.839,22.172,5.221,18.96,5.221z M22.821,18.96c0,2.123-1.727,3.85-3.861,3.85
			h-7.909c-2.134,0-3.861-1.727-3.861-3.85v-7.909c0-2.134,1.727-3.861,3.861-3.861h7.909c2.134,0,3.861,1.727,3.861,3.861V18.96z"
			/>
		<g>
			<path fill="#9EA9B8" d="M14.998,9.922c-2.805,0-5.071,2.277-5.071,5.071c0,2.805,2.267,5.082,5.071,5.082
				s5.071-2.277,5.071-5.082C20.068,12.199,17.802,9.922,14.998,9.922z M14.998,18.139c-1.716,0-3.102-1.386-3.102-3.102
				s1.386-3.113,3.102-3.113s3.102,1.397,3.102,3.113S16.714,18.139,14.998,18.139z"/>
			<circle fill="#9EA9B8" cx="20.076" cy="9.972" r="1.197"/>
		</g>
	</g>
</g>
<g id="Layer_2">
</g>
<g id="Layer_3">
</g>
<g id="Layer_4">
</g>
<g id="Layer_5">
</g>
<g id="Layer_6">
</g>
<g id="Layer_7">
</g>
<g id="Layer_8">
</g>
<g id="Layer_9">
</g>
<g id="Layer_10">
</g>
<g id="Layer_11">
</g>
<g id="Layer_12">
</g>
<g id="Layer_13">
</g>
<g id="Layer_14">
</g>
<g id="Layer_15">
</g>
<g id="Layer_16">
</g>
<g id="Layer_18">
</g>
<g id="Layer_19">
</g>
<g id="Layer_20">
</g>
</svg>
