<?xml version="1.0" encoding="utf-8"?>
<!-- Generator: Adobe Illustrator 24.3.0, SVG Export Plug-In . SVG Version: 6.00 Build 0)  -->
<svg version="1.1" baseProfile="basic" xmlns="http://www.w3.org/2000/svg" xmlns:xlink="http://www.w3.org/1999/xlink" x="0px"
	 y="0px" viewBox="0 0 30 30" xml:space="preserve">
<g id="Layer_1">
	<g>
		<path fill="#9EA9B8" d="M6.514,8.568c0-1.119,0.92-2.04,2.04-2.04c1.129,0,2.04,0.92,2.04,2.04c0,1.129-0.911,2.04-2.04,2.04
			C7.434,10.607,6.514,9.696,6.514,8.568z"/>
		<rect x="6.798" y="12.154" fill="#9EA9B8" width="3.52" height="11.318"/>
		<path fill="#9EA9B8" d="M16.029,23.472h-3.51V12.154h3.378V13.7h0.047c0.465-0.892,1.613-1.821,3.321-1.821
			c3.567,0,4.222,2.343,4.222,5.389v6.205h-3.511V17.97c0-1.309-0.028-2.998-1.831-2.998c-1.831,0-2.116,1.423-2.116,2.903V23.472z"
			/>
	</g>
</g>
<g id="Layer_2">
</g>
<g id="Layer_3">
</g>
<g id="Layer_4">
</g>
<g id="Layer_5">
</g>
<g id="Layer_6">
</g>
<g id="Layer_7">
</g>
<g id="Layer_8">
</g>
<g id="Layer_9">
</g>
<g id="Layer_10">
</g>
<g id="Layer_11">
</g>
<g id="Layer_12">
</g>
<g id="Layer_13">
</g>
<g id="Layer_14">
</g>
<g id="Layer_15">
</g>
<g id="Layer_16">
</g>
<g id="Layer_18">
</g>
<g id="Layer_19">
</g>
<g id="Layer_20">
</g>
</svg>
