<?xml version="1.0" encoding="utf-8"?>
<!-- Generator: Adobe Illustrator 24.3.0, SVG Export Plug-In . SVG Version: 6.00 Build 0)  -->
<svg version="1.1" baseProfile="basic" id="Layer_1"
	 xmlns="http://www.w3.org/2000/svg" xmlns:xlink="http://www.w3.org/1999/xlink" x="0px" y="0px" viewBox="0 0 30 30"
	 xml:space="preserve">
<g>
	<path fill="#9EA9B8" d="M12.406,24.588c-0.425-0.063-0.857-0.097-1.275-0.192c-2.366-0.54-4.211-2.594-4.507-4.995
		c-0.394-3.202,1.776-6.092,4.973-6.616c0.619-0.102,1.242-0.116,1.872-0.004c0,1.05,0,2.091,0,3.151
		c-0.166-0.031-0.322-0.066-0.48-0.089c-1.541-0.224-3.008,0.854-3.21,2.358c-0.217,1.614,0.86,3.035,2.444,3.248
		c1.594,0.215,3.218-1.023,3.203-2.902c-0.018-2.275,0.001-4.55,0.002-6.824c0.001-2.019,0-4.037,0-6.056c0-0.08,0-0.16,0-0.253
		c1.047,0,2.075,0,3.102,0c0.045,0.322,0.073,0.645,0.138,0.96c0.44,2.139,2.336,3.742,4.516,3.816
		c0.19,0.006,0.239,0.057,0.236,0.244c-0.01,0.887-0.005,1.775-0.005,2.662c0,0.067,0,0.134,0,0.218
		c-1.807-0.008-3.403-0.562-4.857-1.64c0,0.101,0,0.167,0,0.233c0.006,2.212,0.012,4.425,0.02,6.637
		c0.004,1.206-0.293,2.328-0.973,3.328c-1.109,1.63-2.654,2.528-4.624,2.686c-0.068,0.005-0.134,0.021-0.201,0.032
		C12.656,24.588,12.531,24.588,12.406,24.588z"/>
</g>
</svg>
