<?xml version="1.0" encoding="utf-8"?>
<!-- Generator: Adobe Illustrator 24.3.0, SVG Export Plug-In . SVG Version: 6.00 Build 0)  -->
<svg version="1.1" baseProfile="basic" xmlns="http://www.w3.org/2000/svg" xmlns:xlink="http://www.w3.org/1999/xlink" x="0px"
	 y="0px" viewBox="0 0 30 30" xml:space="preserve">
<g id="Layer_1">
	<g>
		<g>
			<path fill="#9EA9B8" d="M24.881,8.872c-0.735,0.322-1.518,0.536-2.334,0.64c0.84-0.501,1.481-1.29,1.782-2.239
				c-0.783,0.467-1.648,0.797-2.569,0.981c-0.744-0.792-1.803-1.282-2.959-1.282c-2.243,0-4.049,1.821-4.049,4.053
				c0,0.321,0.027,0.63,0.094,0.924c-3.368-0.164-6.349-1.779-8.351-4.238C6.145,8.317,5.94,9.011,5.94,9.758
				c0,1.403,0.723,2.647,1.8,3.367c-0.651-0.012-1.29-0.201-1.831-0.499c0,0.012,0,0.028,0,0.044c0,1.969,1.404,3.604,3.246,3.981
				c-0.33,0.09-0.689,0.133-1.062,0.133c-0.259,0-0.521-0.015-0.767-0.069c0.525,1.604,2.015,2.784,3.786,2.822
				c-1.378,1.078-3.129,1.728-5.023,1.728c-0.332,0-0.651-0.015-0.97-0.056c1.795,1.157,3.922,1.818,6.215,1.818
				c7.455,0,11.532-6.176,11.532-11.529c0-0.179-0.006-0.352-0.015-0.524C23.655,10.405,24.33,9.692,24.881,8.872z"/>
		</g>
	</g>
</g>
<g id="Layer_2">
</g>
<g id="Layer_3">
</g>
<g id="Layer_4">
</g>
<g id="Layer_5">
</g>
<g id="Layer_6">
</g>
<g id="Layer_7">
</g>
<g id="Layer_8">
</g>
<g id="Layer_9">
</g>
<g id="Layer_10">
</g>
<g id="Layer_11">
</g>
<g id="Layer_12">
</g>
<g id="Layer_13">
</g>
<g id="Layer_14">
</g>
<g id="Layer_15">
</g>
<g id="Layer_16">
</g>
<g id="Layer_18">
</g>
<g id="Layer_19">
</g>
<g id="Layer_20">
</g>
</svg>
