<?xml version="1.0" encoding="utf-8"?>
<!-- Generator: Adobe Illustrator 24.3.0, SVG Export Plug-In . SVG Version: 6.00 Build 0)  -->
<svg version="1.1" baseProfile="basic" xmlns="http://www.w3.org/2000/svg" xmlns:xlink="http://www.w3.org/1999/xlink" x="0px"
	 y="0px" viewBox="0 0 30 30" xml:space="preserve">
<g id="Layer_1">
	<g>
		<path fill="#9EA9B8" d="M15.006,6.298h-0.01c-2.4,0-4.58,0.97-6.15,2.55s-2.55,3.75-2.55,6.15c0,1.91,0.61,3.67,1.66,5.1
			l-1.09,3.24l3.35-1.07c1.37,0.91,3.02,1.44,4.79,1.44c4.8,0,8.7-3.91,8.7-8.71C23.706,10.198,19.806,6.298,15.006,6.298z
			 M20.066,18.588c-0.21,0.59-1.04,1.08-1.71,1.23c-0.45,0.09-1.05,0.17-3.05-0.66c-2.55-1.06-4.2-3.66-4.33-3.82
			c-0.12-0.17-1.03-1.38-1.03-2.63s0.63-1.86,0.89-2.12c0.21-0.21,0.55-0.31,0.89-0.31c0.1,0,0.2,0,0.29,0.01
			c0.25,0.01,0.38,0.03,0.55,0.43c0.21,0.5,0.72,1.75,0.78,1.88c0.07,0.13,0.13,0.3,0.04,0.47c-0.08,0.18-0.15,0.25-0.28,0.4
			c-0.13,0.15-0.25,0.26-0.38,0.42c-0.12,0.14-0.25,0.29-0.1,0.54c0.15,0.25,0.66,1.09,1.41,1.76c0.97,0.86,1.76,1.14,2.04,1.26
			c0.21,0.08,0.46,0.06,0.61-0.1c0.2-0.21,0.44-0.56,0.68-0.9c0.18-0.25,0.4-0.28,0.63-0.19c0.23,0.08,1.48,0.7,1.73,0.82
			c0.26,0.13,0.43,0.19,0.49,0.3C20.276,17.488,20.276,17.998,20.066,18.588z"/>
	</g>
</g>
<g id="Layer_2">
</g>
<g id="Layer_3">
</g>
<g id="Layer_4">
</g>
<g id="Layer_5">
</g>
<g id="Layer_6">
</g>
<g id="Layer_7">
</g>
<g id="Layer_8">
</g>
<g id="Layer_9">
</g>
<g id="Layer_10">
</g>
<g id="Layer_11">
</g>
<g id="Layer_12">
</g>
<g id="Layer_13">
</g>
<g id="Layer_14">
</g>
<g id="Layer_15">
</g>
<g id="Layer_16">
</g>
<g id="Layer_18">
</g>
<g id="Layer_19">
</g>
<g id="Layer_20">
</g>
</svg>
