<svg width="85" height="32" viewBox="0 0 85 32" fill="none" xmlns="http://www.w3.org/2000/svg">
<path fill-rule="evenodd" clip-rule="evenodd" d="M27.8726 22.7082C28.4296 22.319 28.8978 21.6489 29.277 20.6978L31.9392 14.443C31.9881 14.9556 32.0148 15.4756 32.0148 16C32.0148 24.8337 24.8559 31.9959 16.0222 32C11.7796 32 7.71082 30.314 4.71165 27.3132C1.71248 24.3124 0.028744 20.2427 0.0311024 16C0.0311024 7.16838 7.19057 0.00891113 16.0222 0.00891113C23.2882 0.0100912 29.641 4.90708 31.4918 11.9334H30.7037L28.3704 17.5363L26.0533 11.9334H23.5822L27.1585 20.2534L27.1274 20.3289C27.0101 20.6335 26.8205 20.9051 26.5748 21.12C26.3689 21.2785 25.7763 21.3585 25.7763 21.3585L24.4326 21.3926L24.483 23.3556L25.8533 23.2919C26.5708 23.3128 27.2769 23.1087 27.8726 22.7082ZM20.4193 20.1911H22.8148V15.4682C22.8138 14.2494 22.5091 13.3358 21.9007 12.7274C21.2923 12.119 20.4711 11.8148 19.437 11.8148C18.8528 11.8085 18.2741 11.9287 17.7407 12.1674C17.239 12.3915 16.7992 12.7342 16.4593 13.1659C16.1807 12.7321 15.7874 12.3839 15.323 12.16C14.8296 11.925 14.2887 11.8069 13.7422 11.8148C13.2404 11.8091 12.7424 11.9027 12.277 12.0904C11.8441 12.2658 11.4577 12.5392 11.1481 12.8889V11.9334H8.86073V20.1956H11.2593V16.0474C11.2593 15.3314 11.4217 14.7911 11.7467 14.4267C12.0847 14.0593 12.5679 13.8602 13.0667 13.883C14.1106 13.882 14.6326 14.5319 14.6326 15.8326V20.1956H17.0281V16.0474C17.0291 15.3314 17.1931 14.7911 17.52 14.4267C17.8625 14.0577 18.3504 13.8587 18.8533 13.883C19.3555 13.883 19.7422 14.043 20.0133 14.3659C20.2839 14.6889 20.4193 15.1778 20.4193 15.8326V20.1911Z" fill="black"/>
<path fill-rule="evenodd" clip-rule="evenodd" d="M41.3467 20.2963V15.4386C41.3467 13.0504 40 11.9186 37.6637 11.9245C36.3629 11.9245 35.1066 12.2667 34.2444 12.9482L34.9852 14.3586C35.5911 13.8474 36.5289 13.5378 37.437 13.5378C38.7837 13.5378 39.4504 14.2045 39.4504 15.3349V15.4593H37.3615C34.9096 15.4593 34.0015 16.5437 34.0015 17.9245C34.0015 19.3674 35.1674 20.4045 37.0133 20.4045C38.2222 20.4045 39.1022 20.0015 39.5555 19.2874V20.2963H41.3467ZM39.4548 16.7408V17.7008C39.1363 18.5541 38.3348 18.9882 37.4163 18.9897C36.4474 18.9897 35.8726 18.5393 35.8726 17.8415C35.8726 17.2371 36.2163 16.7408 37.5022 16.7408H39.4548Z" fill="black"/>
<path d="M43.1778 16.1481C43.1778 13.6681 44.9926 11.9155 47.5511 11.9155C49.1244 11.9155 50.3807 12.5822 51.0015 13.8415L49.5481 14.7096C49.1371 13.9888 48.3659 13.5492 47.5363 13.5629C46.1437 13.5629 45.0844 14.554 45.0844 16.1511C45.0844 17.7481 46.1437 18.7392 47.5363 18.7392C48.3659 18.753 49.1371 18.3134 49.5481 17.5926L51.0015 18.4607C50.3807 19.7007 49.1244 20.3985 47.5511 20.3985C44.9926 20.3985 43.1778 18.6311 43.1778 16.1481Z" fill="black"/>
<path d="M51.8519 16.1481C51.8519 13.6681 53.6682 11.9155 56.2252 11.9155C57.8 11.9155 59.0563 12.5822 59.6756 13.8415L58.2237 14.7096C57.8122 13.9885 57.0405 13.549 56.2104 13.5629C54.8178 13.5629 53.7585 14.554 53.7585 16.1511C53.7585 17.7481 54.8178 18.7392 56.2104 18.7392C57.04 18.7526 57.811 18.3132 58.2222 17.5926L59.6741 18.4607C59.0548 19.7007 57.7985 20.3985 56.2237 20.3985C53.6652 20.3985 51.8519 18.6311 51.8519 16.1481Z" fill="black"/>
<path fill-rule="evenodd" clip-rule="evenodd" d="M62.4118 16.7703H68.7541C68.7689 16.5925 68.7837 16.3525 68.7778 16.197C68.7778 13.6088 67.0533 11.9185 64.6918 11.9185C62.2918 11.9185 60.5141 13.6814 60.5141 16.151C60.5141 18.6207 62.2696 20.3985 64.9793 20.3985C66.3778 20.3985 67.5126 19.9377 68.2385 19.0488L67.2252 17.8562C66.6504 18.4592 65.9393 18.7555 65.0311 18.7555C63.6237 18.7555 62.64 17.9807 62.4118 16.7703ZM66.9822 15.4844H62.397C62.5793 14.2755 63.4504 13.4696 64.6978 13.4696C65.9452 13.4696 66.8341 14.2903 66.9822 15.4844Z" fill="black"/>
<path d="M69.677 19.4681L70.403 17.9955C71.2463 18.5264 72.2212 18.8112 73.2178 18.8177C74.4133 18.8177 74.9126 18.4755 74.9126 17.9022C74.9126 16.3214 69.9185 17.8088 69.9185 14.5081C69.9185 12.9422 71.2963 11.9185 73.4741 11.9185C74.5481 11.9185 75.7748 12.1822 76.5007 12.6325L75.7748 14.1051C75.0772 13.6843 74.2753 13.4681 73.4607 13.4814C72.3096 13.4814 71.7659 13.8696 71.7659 14.4118C71.7659 16.0859 76.76 14.5985 76.76 17.837C76.76 19.3881 75.3674 20.3955 73.0963 20.3955C71.7496 20.3985 70.403 19.9999 69.677 19.4681Z" fill="black"/>
<path d="M77.4711 19.4681L78.197 17.9955C79.0404 18.5264 80.0153 18.8112 81.0118 18.8177C82.2074 18.8177 82.7067 18.4755 82.7067 17.9022C82.7067 16.3214 77.7126 17.8088 77.7126 14.5081C77.7126 12.9422 79.0904 11.9185 81.2681 11.9185C82.3422 11.9185 83.5689 12.1822 84.2948 12.6325L83.5689 14.1051C82.8713 13.6843 82.0694 13.4681 81.2548 13.4814C80.1037 13.4814 79.5585 13.8696 79.5585 14.4118C79.5585 16.0859 84.5541 14.5985 84.5541 17.837C84.5541 19.3881 83.1615 20.3955 80.8904 20.3955C79.5437 20.3985 78.197 19.9999 77.4711 19.4681Z" fill="black"/>
</svg>
