<svg width="152" height="152" viewBox="0 0 152 152" fill="none" xmlns="http://www.w3.org/2000/svg">
<path d="M0 13C0 5.82029 5.8203 0 13 0H139C146.18 0 152 5.8203 152 13V139C152 146.18 146.18 152 139 152H13C5.82029 152 0 146.18 0 139V13Z" fill="url(#paint0_linear_643_18)"/>
<path d="M55.4281 83.4519C54.8287 84.9546 54.0887 86.0133 53.2083 86.6281C52.2668 87.2609 51.1508 87.5834 50.0167 87.5503L47.8508 87.6509L47.7712 84.5496L49.895 84.4958C49.895 84.4958 50.8316 84.3694 51.1571 84.119C51.5454 83.7793 51.8451 83.3504 52.0305 82.8691L52.0797 82.7497L46.4271 69.605H50.3329L53.9951 78.4571L57.683 69.605H58.9288C56.0035 58.5042 45.9623 50.7675 34.4781 50.7656C20.5191 50.7656 9.20313 62.0768 9.20313 76.0299C9.19941 82.7328 11.8606 89.1625 16.601 93.9035C21.3414 98.6445 27.7723 101.308 34.4781 101.308C48.4402 101.302 59.7553 89.9862 59.7553 76.0299C59.7553 75.2013 59.7132 74.3798 59.6359 73.5699L55.4281 83.4519ZM45.2142 82.6514H41.4279V75.7654C41.4279 74.7309 41.214 73.9585 40.7863 73.4482C40.3578 72.938 39.7466 72.6852 38.9528 72.6852C38.158 72.6468 37.3867 72.9612 36.8454 73.5442C36.3287 74.12 36.0696 74.9735 36.068 76.1048V82.6584H32.2817V75.7654C32.2817 73.7104 31.4567 72.6836 29.8066 72.6852C29.0184 72.6492 28.2545 72.9637 27.7203 73.5442C27.2067 74.12 26.9499 74.9735 26.9499 76.1048V82.6584H23.1589V69.605H26.7743V71.1147C27.2636 70.5621 27.8744 70.1303 28.5586 69.8531C29.2942 69.5566 30.0813 69.4087 30.8744 69.4177C31.7381 69.4052 32.593 69.5918 33.3728 69.9631C34.1069 70.3169 34.7285 70.867 35.1688 71.5524C35.7061 70.8702 36.4012 70.3288 37.1943 69.9748C38.0372 69.5977 38.9519 69.4077 39.8754 69.4177C41.5098 69.4177 42.8078 69.8983 43.7694 70.8595C44.731 71.8207 45.2126 73.2641 45.2142 75.1896V82.6514Z" fill="white"/>
<path d="M74.5049 75.1428V82.8175H71.6739V81.2236C70.9574 82.3518 69.5665 82.9884 67.6558 82.9884C64.7382 82.9884 62.8954 81.35 62.8954 79.0703C62.8954 76.8888 64.3308 75.1755 68.2061 75.1755H71.5077V74.9789C71.5077 73.1931 70.454 72.1398 68.3255 72.1398C66.8901 72.1398 65.4079 72.629 64.4502 73.4365L63.2794 71.2082C64.6422 70.1316 66.6279 69.5909 68.6838 69.5909C72.3764 69.5815 74.5049 71.3697 74.5049 75.1428ZM71.5147 78.7168V77.2001H68.4285C66.396 77.2001 65.8528 77.9842 65.8528 78.9392C65.8528 80.0416 66.7613 80.7531 68.2927 80.7531C69.7445 80.7508 71.0113 80.065 71.5147 78.7168Z" fill="white"/>
<path d="M77.3991 76.2642C77.3991 72.3461 80.2675 69.5771 84.3114 69.5771C86.7982 69.5771 88.7838 70.6304 89.765 72.6199L87.4679 73.9915C86.8183 72.8526 85.5994 72.1582 84.288 72.1799C82.0869 72.1799 80.4127 73.7457 80.4127 76.2689C80.4127 78.792 82.0869 80.3579 84.288 80.3579C85.5994 80.3796 86.8183 79.6851 87.4679 78.5463L89.765 79.9179C88.7838 81.8769 86.7982 82.9793 84.3114 82.9793C80.2675 82.9793 77.3991 80.187 77.3991 76.2642Z" fill="white"/>
<path d="M91.109 76.2642C91.109 72.3461 93.9798 69.5771 98.0213 69.5771C100.51 69.5771 102.496 70.6304 103.475 72.6199L101.18 73.9915C100.53 72.8523 99.31 72.1578 97.9979 72.1799C95.7968 72.1799 94.1226 73.7457 94.1226 76.2689C94.1226 78.792 95.7968 80.3579 97.9979 80.3579C99.3091 80.3791 100.528 79.6848 101.178 78.5463L103.473 79.9179C102.494 81.8769 100.508 82.9793 98.019 82.9793C93.9751 82.9793 91.109 80.187 91.109 76.2642Z" fill="white"/>
<path d="M117.824 77.2474H107.8C108.16 79.1597 109.715 80.3838 111.94 80.3838C113.375 80.3838 114.499 79.9157 115.407 78.9631L117.009 80.8473C115.862 82.2516 114.068 82.9795 111.858 82.9795C107.575 82.9795 104.8 80.1708 104.8 76.2691C104.8 72.3673 107.61 69.582 111.403 69.582C115.136 69.582 117.861 72.2526 117.861 76.3416C117.871 76.5874 117.847 76.9666 117.824 77.2474ZM107.776 75.2158H115.023C114.789 73.3293 113.384 72.0326 111.413 72.0326C109.441 72.0326 108.064 73.3059 107.776 75.2158Z" fill="white"/>
<path d="M119.283 81.5097L120.43 79.1831C121.763 80.0219 123.304 80.4718 124.879 80.4821C126.769 80.4821 127.558 79.9415 127.558 79.0357C127.558 76.5382 119.664 78.8882 119.664 73.6734C119.664 71.1994 121.842 69.582 125.284 69.582C126.982 69.582 128.921 69.9987 130.068 70.7102L128.921 73.0367C127.818 72.3718 126.551 72.0303 125.263 72.0513C123.444 72.0513 122.584 72.6646 122.584 73.5212C122.584 76.1661 130.478 73.8161 130.478 78.9327C130.478 81.3833 128.277 82.9749 124.687 82.9749C122.559 82.9795 120.43 82.3499 119.283 81.5097Z" fill="white"/>
<path d="M131.602 81.5097L132.749 79.1831C134.082 80.0219 135.623 80.4718 137.198 80.4821C139.088 80.4821 139.877 79.9415 139.877 79.0357C139.877 76.5382 131.983 78.8882 131.983 73.6734C131.983 71.1994 134.161 69.582 137.603 69.582C139.301 69.582 141.24 69.9987 142.387 70.7102L141.24 73.0367C140.137 72.3718 138.87 72.0303 137.582 72.0513C135.763 72.0513 134.901 72.6646 134.901 73.5212C134.901 76.1661 142.797 73.8161 142.797 78.9327C142.797 81.3833 140.596 82.9749 137.006 82.9749C134.878 82.9795 132.749 82.3499 131.602 81.5097Z" fill="white"/>
<defs>
<linearGradient id="paint0_linear_643_18" x1="-1.42667e-06" y1="152" x2="152" y2="-1.42667e-06" gradientUnits="userSpaceOnUse">
<stop offset="0.251781" stop-color="#0A0A0A"/>
<stop offset="1" stop-color="#434343"/>
</linearGradient>
</defs>
</svg>
