<?xml version="1.0"?>
<svg xmlns="http://www.w3.org/2000/svg" xmlns:xlink="http://www.w3.org/1999/xlink" xmlns:svgjs="http://svgjs.com/svgjs" version="1.1" width="512" height="512" x="0" y="0" viewBox="0 0 512 512" style="enable-background:new 0 0 512 512" xml:space="preserve" class=""><g><g xmlns="http://www.w3.org/2000/svg" id="Solid"><path d="m48 192h358.059l-39.03 39.029a24 24 0 0 0 33.942 33.942l80-80a24 24 0 0 0 0-33.942l-80-80a24 24 0 0 0 -33.942 33.942l39.03 39.029h-358.059a24 24 0 0 0 0 48z" fill="#9ea9b8" data-original="#000000" style="" class=""/><path d="m464 320h-358.059l39.03-39.029a24 24 0 0 0 -33.942-33.942l-80 80a24 24 0 0 0 0 33.942l80 80a24 24 0 0 0 33.942-33.942l-39.03-39.029h358.059a24 24 0 0 0 0-48z" fill="#9ea9b8" data-original="#000000" style="" class=""/></g></g></svg>
