<?xml version="1.0" encoding="utf-8"?>
<!-- Generator: Adobe Illustrator 24.3.0, SVG Export Plug-In . SVG Version: 6.00 Build 0)  -->
<svg version="1.1" id="Ebene_1" shape-rendering="auto"
	 xmlns="http://www.w3.org/2000/svg" xmlns:xlink="http://www.w3.org/1999/xlink" x="0px" y="0px" viewBox="0 0 100 100"
	 style="enable-background:new 0 0 100 100;" xml:space="preserve">
<style type="text/css">
	.st0{fill:#FFFFFF;}
</style>
<path d="M42.88,10.91v0.61h-0.61C42.61,11.52,42.88,11.25,42.88,10.91z"/>
<path d="M46.34,11.52h-0.61v-0.61C45.73,11.25,46,11.52,46.34,11.52z"/>
<path d="M49.19,8.67h1.64c0.33,0,0.61,0.27,0.61,0.61v1.64c0,0.33-0.27,0.61-0.61,0.61h-1.64c-0.33,0-0.61-0.27-0.61-0.61V9.28
	C48.58,8.94,48.85,8.67,49.19,8.67z"/>
<path d="M66.29,11.52h-0.61v-0.61C65.68,11.25,65.94,11.52,66.29,11.52z"/>
<path d="M34.33,13.76v0.61h-0.61C34.06,14.37,34.33,14.1,34.33,13.76z"/>
<path d="M40.03,13.76v0.61h-0.61C39.76,14.37,40.03,14.1,40.03,13.76z"/>
<path d="M37.78,14.37h-0.61v-0.61C37.18,14.1,37.44,14.37,37.78,14.37z"/>
<path d="M51.43,20.68v1.63c0,0.34-0.27,0.61-0.61,0.61h-5.09v5.09c0,0.34-0.27,0.61-0.61,0.61h-1.63c-0.34,0-0.61-0.27-0.61-0.61
	v-2.24h-2.85v5.09c0,0.34-0.27,0.61-0.61,0.61h-4.48c-0.34,0-0.61-0.27-0.61-0.61v-1.63c0-0.34,0.27-0.61,0.61-0.61h2.24v-5.7h-2.24
	c-0.34,0-0.61-0.27-0.61-0.61v-2.24h-2.24c-0.34,0-0.61-0.27-0.61-0.61v-4.48c0-0.34,0.27-0.61,0.61-0.61h2.24v-2.24
	c0-0.34,0.27-0.61,0.61-0.61h1.63c0.34,0,0.61,0.27,0.61,0.61v2.24h2.85v-2.24c0-0.34,0.27-0.61,0.61-0.61h2.24V9.28
	c0-0.34,0.27-0.61,0.61-0.61h1.63c0.34,0,0.61,0.27,0.61,0.61v2.24h2.24c0.34,0,0.61,0.27,0.61,0.61v1.63
	c0,0.34-0.27,0.61-0.61,0.61h-2.24v2.24c0,0.34-0.27,0.61-0.61,0.61h-7.94v2.85h8.55v-2.24c0-0.34,0.27-0.61,0.61-0.61h1.63
	c0.34,0,0.61,0.27,0.61,0.61v2.24h2.24C51.16,20.07,51.43,20.34,51.43,20.68z"/>
<path d="M46.34,14.37c-0.34,0-0.61,0.27-0.61,0.61v-0.61H46.34z"/>
<path d="M54.28,16.61v0.61h-0.61C54.01,17.22,54.28,16.95,54.28,16.61z"/>
<path d="M57.74,14.37c-0.34,0-0.61,0.27-0.61,0.61v-0.61H57.74z"/>
<path d="M57.74,17.22h-0.61v-0.61C57.12,16.95,57.4,17.22,57.74,17.22z"/>
<path d="M65.68,14.37v0.61c0-0.34-0.27-0.61-0.61-0.61H65.68z"/>
<path d="M68.53,12.13v4.48c0,0.34-0.27,0.61-0.61,0.61h-1.63c-0.34,0-0.61-0.27-0.61-0.61v-2.24h-2.24c-0.34,0-0.61-0.27-0.61-0.61
	V9.28c0-0.34,0.27-0.61,0.61-0.61h1.63c0.34,0,0.61,0.27,0.61,0.61v2.24h2.24C68.26,11.52,68.53,11.79,68.53,12.13z"/>
<path d="M37.78,17.22c-0.34,0-0.61,0.27-0.61,0.61v-0.61H37.78z"/>
<path d="M37.78,20.07h-0.61v-0.61C37.18,19.8,37.44,20.07,37.78,20.07z"/>
<path d="M45.73,19.46v0.61h-0.61C45.46,20.07,45.73,19.8,45.73,19.46z"/>
<path d="M49.19,20.07h-0.61v-0.61C48.58,19.8,48.85,20.07,49.19,20.07z"/>
<path d="M34.33,20.07v0.61c0-0.34-0.27-0.61-0.61-0.61H34.33z"/>
<path d="M57.12,20.07v0.61c0-0.34-0.27-0.61-0.61-0.61H57.12z"/>
<path d="M57.12,22.31v0.61h-0.61C56.86,22.92,57.12,22.65,57.12,22.31z"/>
<path d="M68.53,20.68v7.33c0,0.34-0.27,0.61-0.61,0.61h-1.63c-0.34,0-0.61-0.27-0.61-0.61v-7.33c0-0.34,0.27-0.61,0.61-0.61h1.63
	C68.26,20.07,68.53,20.34,68.53,20.68z"/>
<path d="M37.18,22.92v0.61c0-0.34-0.27-0.61-0.61-0.61H37.18z"/>
<path d="M46.34,22.92c-0.34,0-0.61,0.27-0.61,0.61v-0.61H46.34z"/>
<path d="M32.09,25.77h1.64c0.33,0,0.61,0.27,0.61,0.61v1.64c0,0.33-0.27,0.61-0.61,0.61h-1.64c-0.33,0-0.61-0.27-0.61-0.61v-1.64
	C31.48,26.04,31.75,25.77,32.09,25.77z"/>
<path d="M37.18,28.01v0.61h-0.61C36.91,28.62,37.18,28.35,37.18,28.01z"/>
<path d="M40.64,25.77c-0.34,0-0.61,0.27-0.61,0.61v-0.61H40.64z"/>
<path d="M42.88,25.77v0.61c0-0.34-0.27-0.61-0.61-0.61H42.88z"/>
<path d="M48.58,28.01v0.61h-0.61C48.31,28.62,48.58,28.35,48.58,28.01z"/>
<path d="M51.43,26.38v7.33c0,0.34-0.27,0.61-0.61,0.61h-4.48c-0.34,0-0.61-0.27-0.61-0.61v-4.48c0-0.34,0.27-0.61,0.61-0.61h2.24
	v-2.24c0-0.34,0.27-0.61,0.61-0.61h1.63C51.16,25.77,51.43,26.04,51.43,26.38z"/>
<path d="M57.74,25.77c-0.34,0-0.61,0.27-0.61,0.61v-0.61H57.74z"/>
<path d="M59.98,25.77v0.61c0-0.34-0.27-0.61-0.61-0.61H59.98z"/>
<path d="M63.44,31.47h-0.61v-0.61C62.83,31.2,63.1,31.47,63.44,31.47z"/>
<path d="M22.93,32.08v1.63c0,0.34-0.27,0.61-0.61,0.61h-4.48c-0.34,0-0.61-0.27-0.61-0.61v-1.63c0-0.34,0.27-0.61,0.61-0.61h4.48
	C22.66,31.47,22.93,31.74,22.93,32.08z"/>
<path d="M31.48,32.08v1.63c0,0.34-0.27,0.61-0.61,0.61h-4.48c-0.34,0-0.61-0.27-0.61-0.61v-1.63c0-0.34,0.27-0.61,0.61-0.61h4.48
	C31.21,31.47,31.48,31.74,31.48,32.08z"/>
<path d="M40.64,31.47h1.64c0.33,0,0.61,0.27,0.61,0.61v1.64c0,0.33-0.27,0.61-0.61,0.61h-1.64c-0.33,0-0.61-0.27-0.61-0.61v-1.64
	C40.03,31.74,40.3,31.47,40.64,31.47z"/>
<path d="M68.53,32.08v1.63c0,0.34-0.27,0.61-0.61,0.61h-7.33c-0.34,0-0.61-0.27-0.61-0.61v-7.94h-2.85v5.09
	c0,0.34-0.27,0.61-0.61,0.61h-1.63c-0.34,0-0.61-0.27-0.61-0.61v-7.33c0-0.34,0.27-0.61,0.61-0.61h2.24v-2.85h-5.09
	c-0.34,0-0.61-0.27-0.61-0.61v-1.63c0-0.34,0.27-0.61,0.61-0.61h2.24V9.28c0-0.34,0.27-0.61,0.61-0.61h4.48
	c0.34,0,0.61,0.27,0.61,0.61v4.48c0,0.34-0.27,0.61-0.61,0.61h-2.24v2.85h5.09c0.34,0,0.61,0.27,0.61,0.61v13.64h5.09
	C68.26,31.47,68.53,31.74,68.53,32.08z"/>
<path d="M17.23,37.78v1.63c0,0.34-0.27,0.61-0.61,0.61h-4.48c-0.34,0-0.61-0.27-0.61-0.61v-2.24H9.29c-0.34,0-0.61-0.27-0.61-0.61
	v-1.63c0-0.34,0.27-0.61,0.61-0.61h4.48c0.34,0,0.61,0.27,0.61,0.61v2.24h2.24C16.96,37.17,17.23,37.44,17.23,37.78z"/>
<path d="M14.99,37.17h-0.61v-0.61C14.38,36.9,14.65,37.17,14.99,37.17z"/>
<path d="M23.54,34.32h1.64c0.33,0,0.61,0.27,0.61,0.61v1.64c0,0.33-0.27,0.61-0.61,0.61h-1.64c-0.33,0-0.61-0.27-0.61-0.61v-1.64
	C22.93,34.59,23.2,34.32,23.54,34.32z"/>
<path d="M77.69,34.32h1.64c0.33,0,0.61,0.27,0.61,0.61v1.64c0,0.33-0.27,0.61-0.61,0.61h-1.64c-0.33,0-0.61-0.27-0.61-0.61v-1.64
	C77.08,34.59,77.35,34.32,77.69,34.32z"/>
<path d="M82.78,34.32v0.61c0-0.34-0.27-0.61-0.61-0.61H82.78z"/>
<path d="M85.62,32.08v4.48c0,0.34-0.27,0.61-0.61,0.61h-1.63c-0.34,0-0.61-0.27-0.61-0.61v-2.24h-2.24c-0.34,0-0.61-0.27-0.61-0.61
	v-1.63c0-0.34,0.27-0.61,0.61-0.61h4.48C85.36,31.47,85.62,31.74,85.62,32.08z"/>
<path d="M11.53,37.17v0.61c0-0.34-0.27-0.61-0.61-0.61H11.53z"/>
<path d="M20.69,37.17h1.64c0.33,0,0.61,0.27,0.61,0.61v1.64c0,0.33-0.27,0.61-0.61,0.61h-1.64c-0.33,0-0.61-0.27-0.61-0.61v-1.64
	C20.08,37.44,20.35,37.17,20.69,37.17z"/>
<path d="M26.39,37.17h1.64c0.33,0,0.61,0.27,0.61,0.61v1.64c0,0.33-0.27,0.61-0.61,0.61h-1.64c-0.33,0-0.61-0.27-0.61-0.61v-1.64
	C25.78,37.44,26.05,37.17,26.39,37.17z"/>
<path d="M31.48,39.41v0.61h-0.61C31.21,40.02,31.48,39.75,31.48,39.41z"/>
<path d="M34.33,37.78v7.33c0,0.34-0.27,0.61-0.61,0.61h-7.33c-0.34,0-0.61-0.27-0.61-0.61v-1.63c0-0.34,0.27-0.61,0.61-0.61h2.24
	v-2.24c0-0.34,0.27-0.61,0.61-0.61h2.24v-2.24c0-0.34,0.27-0.61,0.61-0.61h1.63C34.06,37.17,34.33,37.44,34.33,37.78z"/>
<path d="M74.83,37.17h1.64c0.33,0,0.61,0.27,0.61,0.61v1.64c0,0.33-0.27,0.61-0.61,0.61h-1.64c-0.33,0-0.61-0.27-0.61-0.61v-1.64
	C74.22,37.44,74.5,37.17,74.83,37.17z"/>
<path d="M17.84,40.02h1.64c0.33,0,0.61,0.27,0.61,0.61v1.64c0,0.33-0.27,0.61-0.61,0.61h-1.64c-0.33,0-0.61-0.27-0.61-0.61v-1.64
	C17.23,40.29,17.5,40.02,17.84,40.02z"/>
<path d="M28.63,42.26v0.61h-0.61C28.36,42.87,28.63,42.6,28.63,42.26z"/>
<path d="M71.99,42.87h-0.61v-0.61C71.38,42.6,71.65,42.87,71.99,42.87z"/>
<path d="M77.08,42.26v0.61h-0.61C76.81,42.87,77.08,42.6,77.08,42.26z"/>
<path d="M91.33,40.63v7.33c0,0.34-0.27,0.61-0.61,0.61h-5.09v2.24c0,0.34-0.27,0.61-0.61,0.61h-4.48c-0.34,0-0.61-0.27-0.61-0.61
	v-1.63c0-0.34,0.27-0.61,0.61-0.61h2.24v-2.24c0-0.34,0.27-0.61,0.61-0.61h2.24v-2.85h-2.85v2.24c0,0.34-0.27,0.61-0.61,0.61h-2.24
	v2.24c0,0.34-0.27,0.61-0.61,0.61h-1.63c-0.34,0-0.61-0.27-0.61-0.61v-2.24h-2.85v2.85h2.24c0.34,0,0.61,0.27,0.61,0.61v2.24h2.24
	c0.34,0,0.61,0.27,0.61,0.61v1.63c0,0.34-0.27,0.61-0.61,0.61h-4.48c-0.34,0-0.61-0.27-0.61-0.61v-2.24h-2.24
	c-0.34,0-0.61-0.27-0.61-0.61v-2.24h-2.24c-0.34,0-0.61-0.27-0.61-0.61v-5.09h-2.24c-0.34,0-0.61-0.27-0.61-0.61v-1.63
	c0-0.34,0.27-0.61,0.61-0.61h4.48c0.34,0,0.61,0.27,0.61,0.61v2.24h5.7v-2.24c0-0.34,0.27-0.61,0.61-0.61h13.03
	C91.06,40.02,91.33,40.29,91.33,40.63z"/>
<path d="M33.72,48.57h-1.63c-0.34,0-0.61,0.27-0.61,0.61v2.24h-2.24c-0.34,0-0.61,0.27-0.61,0.61v2.24h-2.85v-2.85h2.24
	c0.34,0,0.61-0.27,0.61-0.61v-1.63c0-0.34-0.27-0.61-0.61-0.61h-5.09v-5.09c0-0.34-0.27-0.61-0.61-0.61h-1.63
	c-0.34,0-0.61,0.27-0.61,0.61v2.24h-2.85v-2.24c0-0.34-0.27-0.61-0.61-0.61h-1.63c-0.34,0-0.61,0.27-0.61,0.61v2.24h-2.85v-2.24
	c0-0.34-0.27-0.61-0.61-0.61H9.29c-0.34,0-0.61,0.27-0.61,0.61v4.48c0,0.34,0.27,0.61,0.61,0.61h7.94v5.09
	c0,0.34,0.27,0.61,0.61,0.61h2.24v2.85h-2.24c-0.34,0-0.61,0.27-0.61,0.61v2.24h-2.85v-2.24c0-0.34-0.27-0.61-0.61-0.61h-2.24v-2.85
	h2.24c0.34,0,0.61-0.27,0.61-0.61v-1.63c0-0.34-0.27-0.61-0.61-0.61H9.29c-0.34,0-0.61,0.27-0.61,0.61v15.88
	c0,0.34,0.27,0.61,0.61,0.61h4.48c0.34,0,0.61-0.27,0.61-0.61v-2.24h2.85v2.24c0,0.34,0.27,0.61,0.61,0.61h4.48
	c0.34,0,0.61-0.27,0.61-0.61v-1.63c0-0.34-0.27-0.61-0.61-0.61h-2.24v-5.7h2.85v5.09c0,0.34,0.27,0.61,0.61,0.61h1.63
	c0.34,0,0.61-0.27,0.61-0.61v-2.24h5.09c0.34,0,0.61-0.27,0.61-0.61v-2.24h2.24c0.34,0,0.61-0.27,0.61-0.61V49.18
	C34.33,48.84,34.06,48.57,33.72,48.57z M25.78,59.97v-2.85h2.85v2.85C28.63,59.97,25.78,59.97,25.78,59.97z"/>
<path d="M14.38,45.11v0.61h-0.61C14.11,45.72,14.38,45.45,14.38,45.11z"/>
<path d="M12.14,45.72h-0.61v-0.61C11.53,45.45,11.8,45.72,12.14,45.72z"/>
<path d="M20.08,45.11v0.61h-0.61C19.81,45.72,20.08,45.45,20.08,45.11z"/>
<path d="M17.84,45.72h-0.61v-0.61C17.23,45.45,17.5,45.72,17.84,45.72z"/>
<path d="M68.53,42.87v0.61c0-0.34-0.27-0.61-0.61-0.61H68.53z"/>
<path d="M83.39,42.87c-0.34,0-0.61,0.27-0.61,0.61v-0.61H83.39z"/>
<path d="M85.62,42.87v0.61c0-0.34-0.27-0.61-0.61-0.61H85.62z"/>
<path d="M85.62,45.11v0.61h-0.61C85.36,45.72,85.62,45.45,85.62,45.11z"/>
<path d="M23.54,48.57h-0.61v-0.61C22.93,48.3,23.2,48.57,23.54,48.57z"/>
<path d="M74.83,45.72c-0.34,0-0.61,0.27-0.61,0.61v-0.61H74.83z"/>
<path d="M77.08,45.72v0.61c0-0.34-0.27-0.61-0.61-0.61H77.08z"/>
<path d="M74.83,48.57h-0.61v-0.61C74.22,48.3,74.5,48.57,74.83,48.57z"/>
<path d="M80.54,45.72c-0.34,0-0.61,0.27-0.61,0.61v-0.61H80.54z"/>
<path d="M82.78,47.96v0.61h-0.61C82.51,48.57,82.78,48.3,82.78,47.96z"/>
<path d="M17.23,48.57v0.61c0-0.34-0.27-0.61-0.61-0.61H17.23z"/>
<path d="M31.48,50.81v0.61h-0.61C31.21,51.42,31.48,51.15,31.48,50.81z"/>
<path d="M71.38,48.57v0.61c0-0.34-0.27-0.61-0.61-0.61H71.38z"/>
<path d="M77.69,51.42h-0.61v-0.61C77.08,51.15,77.35,51.42,77.69,51.42z"/>
<path d="M86.24,48.57c-0.34,0-0.61,0.27-0.61,0.61v-0.61H86.24z"/>
<path d="M26.39,51.42c-0.34,0-0.61,0.27-0.61,0.61v-0.61H26.39z"/>
<path d="M28.63,53.66v0.61h-0.61C28.36,54.27,28.63,54,28.63,53.66z"/>
<path d="M26.39,54.27h-0.61v-0.61C25.78,54,26.05,54.27,26.39,54.27z"/>
<path d="M74.22,51.42v0.61c0-0.34-0.27-0.61-0.61-0.61H74.22z"/>
<path d="M12.14,54.27c-0.34,0-0.61,0.27-0.61,0.61v-0.61H12.14z"/>
<path d="M12.14,57.12h-0.61v-0.61C11.53,56.85,11.8,57.12,12.14,57.12z"/>
<path d="M14.99,54.27h1.64c0.33,0,0.61,0.27,0.61,0.61v1.64c0,0.33-0.27,0.61-0.61,0.61h-1.64c-0.33,0-0.61-0.27-0.61-0.61v-1.64
	C14.38,54.54,14.65,54.27,14.99,54.27z"/>
<path d="M20.08,54.27v0.61c0-0.34-0.27-0.61-0.61-0.61H20.08z"/>
<path d="M20.08,56.51v0.61h-0.61C19.81,57.12,20.08,56.85,20.08,56.51z"/>
<path d="M83.39,54.27h1.64c0.33,0,0.61,0.27,0.61,0.61v1.64c0,0.33-0.27,0.61-0.61,0.61h-1.64c-0.33,0-0.61-0.27-0.61-0.61v-1.64
	C82.78,54.54,83.04,54.27,83.39,54.27z"/>
<path d="M17.23,59.36v0.61h-0.61C16.96,59.97,17.23,59.7,17.23,59.36z"/>
<path d="M14.99,59.97h-0.61v-0.61C14.38,59.7,14.65,59.97,14.99,59.97z"/>
<path d="M26.39,57.12c-0.34,0-0.61,0.27-0.61,0.61v-0.61H26.39z"/>
<path d="M28.63,57.12v0.61c0-0.34-0.27-0.61-0.61-0.61H28.63z"/>
<path d="M28.63,59.36v0.61h-0.61C28.36,59.97,28.63,59.7,28.63,59.36z"/>
<path d="M26.39,59.97h-0.61v-0.61C25.78,59.7,26.05,59.97,26.39,59.97z"/>
<path d="M71.37,59.36v0.61h-0.61C71.11,59.97,71.37,59.7,71.37,59.36z"/>
<path d="M69.14,59.97h-0.61v-0.61C68.53,59.7,68.79,59.97,69.14,59.97z"/>
<path d="M74.83,59.97h-0.61v-0.61C74.22,59.7,74.5,59.97,74.83,59.97z"/>
<path d="M82.78,57.73v4.48c0,0.34-0.27,0.61-0.61,0.61h-1.63c-0.34,0-0.61-0.27-0.61-0.61v-4.48c0-0.34,0.27-0.61,0.61-0.61h1.63
	C82.51,57.12,82.78,57.39,82.78,57.73z"/>
<path d="M91.33,57.73v7.33c0,0.34-0.27,0.61-0.61,0.61h-1.63c-0.34,0-0.61-0.27-0.61-0.61v-7.33c0-0.34,0.27-0.61,0.61-0.61h1.63
	C91.06,57.12,91.33,57.39,91.33,57.73z"/>
<path d="M20.69,59.97c-0.34,0-0.61,0.27-0.61,0.61v-0.61H20.69z"/>
<path d="M22.93,59.97v0.61c0-0.34-0.27-0.61-0.61-0.61H22.93z"/>
<path d="M32.09,59.97c-0.34,0-0.61,0.27-0.61,0.61v-0.61H32.09z"/>
<path d="M20.69,65.67h-0.61v-0.61C20.08,65.4,20.35,65.67,20.69,65.67z"/>
<path d="M26.39,62.82c-0.34,0-0.61,0.27-0.61,0.61v-0.61H26.39z"/>
<path d="M68.53,62.82v0.61c0-0.34-0.27-0.61-0.61-0.61H68.53z"/>
<path d="M68.53,65.06v0.61h-0.61C68.26,65.67,68.53,65.4,68.53,65.06z"/>
<path d="M74.83,62.82c-0.33,0-0.61,0.27-0.61,0.61v-0.61H74.83z"/>
<path d="M77.08,65.06v0.61h-0.61C76.8,65.67,77.08,65.4,77.08,65.06z"/>
<path d="M74.83,65.67h-0.61v-0.61C74.22,65.4,74.5,65.67,74.83,65.67z"/>
<path d="M90.72,82.77h-2.25v-0.61c0,0.04,0,0.08,0.01,0.12v-1.75c0-0.34-0.27-0.61-0.61-0.61h-2.25v-2.24
	c0-0.34-0.26-0.61-0.61-0.61h-2.23v-5.7h2.84v2.24c0,0.34,0.27,0.61,0.62,0.61h1.62c0.34,0,0.61-0.27,0.61-0.61v-7.33
	c0-0.34-0.26-0.61-0.61-0.61h-1.62c-0.34,0-0.62,0.27-0.62,0.61v2.24h-2.84v-2.24c0-0.34-0.27-0.61-0.61-0.61h-2.24v-2.24
	c0-0.34-0.28-0.61-0.61-0.61h-1.63c-0.34,0-0.61,0.27-0.61,0.61v2.24h-2.86v-2.85h2.24c0.34,0,0.61-0.27,0.61-0.61v-1.63
	c0-0.34-0.27-0.61-0.61-0.61h-2.24v-2.24c0-0.34-0.26-0.61-0.61-0.61h-1.62c-0.34,0-0.62,0.27-0.62,0.61v2.24h-2.84v-7.94
	c0-0.34-0.27-0.61-0.61-0.61h-1.63c-0.34,0-0.61,0.27-0.61,0.61v10.18c0,0.34,0.26,0.61,0.61,0.61h2.24v2.85h-7.94
	c-0.34,0-0.61,0.27-0.61,0.61v2.24h-2.24c-0.35,0-0.62,0.27-0.62,0.61v4.48c0,0.34,0.27,0.61,0.62,0.61h2.24v2.24
	c0,0.34,0.27,0.61,0.61,0.61h5.09v2.24c0,0.34,0.26,0.61,0.61,0.61h5.09v2.24c0,0.34,0.27,0.61,0.61,0.61h1.63
	c0.34,0,0.61-0.27,0.61-0.61v-1.75c-0.01,0.04-0.01,0.08-0.01,0.12v-0.61h2.86v2.85h-2.24c-0.34,0-0.61,0.27-0.61,0.61v2.24h-2.86
	v-0.61c0,0.04,0,0.08,0.01,0.12v-1.75c0-0.34-0.27-0.61-0.61-0.61h-1.63c-0.34,0-0.61,0.27-0.61,0.61v2.24h-2.85v-5.09
	c0-0.34-0.27-0.61-0.61-0.61h-1.63c-0.34,0-0.61,0.27-0.61,0.61v2.24h-2.85v-5.09c0-0.34-0.27-0.61-0.61-0.61h-2.25v-2.24
	c0-0.34-0.27-0.61-0.61-0.61h-5.08v-2.24c0-0.34-0.27-0.61-0.61-0.61h-1.63c-0.34,0-0.61,0.27-0.61,0.61v4.48
	c0,0.34,0.27,0.61,0.61,0.61h2.24v2.24c0,0.34,0.27,0.61,0.61,0.61h5.09v2.85h-7.94c-0.34,0-0.61,0.27-0.61,0.61v1.63
	c0,0.34,0.27,0.61,0.61,0.61h7.94v2.24c0,0.34,0.27,0.61,0.61,0.61h2.24v2.24c0,0.34,0.27,0.61,0.61,0.61h1.63
	c0.34,0,0.61-0.27,0.61-0.61v-2.24h2.85v2.24c0,0.34,0.27,0.61,0.61,0.61h4.48c0.34,0,0.61-0.27,0.61-0.61v-1.75
	c-0.01,0.04-0.01,0.08-0.01,0.12v-0.61h5.1c0.34,0,0.61-0.27,0.61-0.61v-2.24h2.85v2.85h-2.24c-0.34,0-0.61,0.27-0.61,0.61v1.63
	c0,0.34,0.27,0.61,0.61,0.61h7.33c0.34,0,0.61-0.27,0.61-0.61v-1.75c-0.01,0.04-0.01,0.08-0.01,0.12v-0.61h2.25
	c0.34,0,0.61-0.27,0.61-0.61v-1.75c-0.01,0.04-0.01,0.08-0.01,0.12v-0.61h2.25c0.34,0,0.61-0.27,0.61-0.61v-1.63
	C91.33,83.04,91.05,82.77,90.72,82.77z M77.08,77.07h-8.55v-8.55h8.55V77.07z M82.78,82.77h-2.85v-2.85h2.85V82.77z"/>
<path d="M80.54,65.67h-0.61v-0.61C79.93,65.4,80.19,65.67,80.54,65.67z"/>
<path d="M83.39,62.82h1.64c0.33,0,0.61,0.27,0.61,0.61v1.64c0,0.33-0.27,0.61-0.61,0.61h-1.64c-0.33,0-0.61-0.27-0.61-0.61v-1.64
	C82.78,63.09,83.04,62.82,83.39,62.82z"/>
<path d="M14.99,65.67c-0.34,0-0.61,0.27-0.61,0.61v-0.61H14.99z"/>
<path d="M17.23,65.67v0.61c0-0.34-0.27-0.61-0.61-0.61H17.23z"/>
<path d="M26.39,65.67h1.64c0.33,0,0.61,0.27,0.61,0.61v1.64c0,0.33-0.27,0.61-0.61,0.61h-1.64c-0.33,0-0.61-0.27-0.61-0.61v-1.64
	C25.78,65.94,26.05,65.67,26.39,65.67z"/>
<path d="M45.73,66.28v4.48c0,0.34-0.27,0.61-0.61,0.61h-1.63c-0.34,0-0.61-0.27-0.61-0.61v-4.48c0-0.34,0.27-0.61,0.61-0.61h1.63
	C45.46,65.67,45.73,65.94,45.73,66.28z"/>
<path d="M57.12,66.28v1.63c0,0.34-0.27,0.61-0.61,0.61h-4.48c-0.34,0-0.61-0.27-0.61-0.61v-1.63c0-0.34,0.27-0.61,0.61-0.61h4.48
	C56.86,65.67,57.12,65.94,57.12,66.28z"/>
<path d="M59.98,67.91v0.61h-0.61C59.71,68.52,59.98,68.25,59.98,67.91z"/>
<path d="M85.62,67.91v0.61h-0.61C85.36,68.52,85.62,68.25,85.62,67.91z"/>
<path d="M83.39,68.52h-0.61v-0.61C82.78,68.25,83.04,68.52,83.39,68.52z"/>
<path d="M42.88,71.98v4.48c0,0.34-0.27,0.61-0.61,0.61h-1.63c-0.34,0-0.61-0.27-0.61-0.61v-2.24h-2.85v2.24
	c0,0.34-0.27,0.61-0.61,0.61h-1.63c-0.34,0-0.61-0.27-0.61-0.61v-2.24h-2.24c-0.34,0-0.61-0.27-0.61-0.61v-4.48
	c0-0.34,0.27-0.61,0.61-0.61h1.63c0.34,0,0.61,0.27,0.61,0.61v2.24h2.85v-5.09c0-0.34,0.27-0.61,0.61-0.61h1.63
	c0.34,0,0.61,0.27,0.61,0.61v5.09h2.24C42.61,71.37,42.88,71.64,42.88,71.98z"/>
<path d="M37.18,70.76v0.61h-0.61C36.91,71.37,37.18,71.1,37.18,70.76z"/>
<path d="M34.94,71.37h-0.61v-0.61C34.33,71.1,34.6,71.37,34.94,71.37z"/>
<path d="M40.64,71.37h-0.61v-0.61C40.03,71.1,40.3,71.37,40.64,71.37z"/>
<path d="M69.14,68.52c-0.34,0-0.61,0.27-0.61,0.61v-0.61H69.14z"/>
<path d="M77.08,68.52v0.61c0-0.34-0.27-0.61-0.61-0.61H77.08z"/>
<path d="M88.47,86.23c0-0.04,0-0.08,0.01-0.12v-0.49h-0.01V86.23z M88.47,82.16v0.61h0.01v-0.49C88.47,82.24,88.47,82.2,88.47,82.16
	z M85.62,89.08c0-0.04,0-0.08,0.01-0.12v-0.49h-0.01V89.08z M74.22,80.53c0-0.04,0-0.08,0.01-0.12v-0.49h-0.01V80.53z M71.37,89.08
	c0-0.04,0-0.08,0.01-0.12v-0.49h-0.01V89.08z M71.37,85.62h0.01v-0.49c-0.01-0.04-0.01-0.08-0.01-0.12V85.62z"/>
<path d="M52.03,74.22h-0.6v-0.61C51.43,73.95,51.69,74.22,52.03,74.22z"/>
<path d="M71.99,71.37h1.64c0.33,0,0.61,0.27,0.61,0.61v1.64c0,0.33-0.27,0.61-0.61,0.61h-1.64c-0.33,0-0.61-0.27-0.61-0.61v-1.64
	C71.38,71.64,71.65,71.37,71.99,71.37z"/>
<path d="M83.39,71.37c-0.34,0-0.61,0.27-0.61,0.61v-0.61H83.39z"/>
<path d="M85.62,71.37v0.61c0-0.34-0.26-0.61-0.61-0.61H85.62z"/>
<path d="M34.33,74.22v0.61c0-0.34-0.27-0.61-0.61-0.61H34.33z"/>
<path d="M37.78,74.22c-0.34,0-0.61,0.27-0.61,0.61v-0.61H37.78z"/>
<path d="M40.03,74.22v0.61c0-0.34-0.27-0.61-0.61-0.61H40.03z"/>
<path d="M59.98,74.22v0.61c0-0.34-0.27-0.61-0.61-0.61H59.98z"/>
<path d="M57.74,77.07h-0.62v-0.61C57.12,76.8,57.39,77.07,57.74,77.07z"/>
<path d="M69.14,77.07h-0.61v-0.61C68.53,76.8,68.79,77.07,69.14,77.07z"/>
<path d="M77.08,76.46v0.61h-0.61C76.8,77.07,77.08,76.8,77.08,76.46z"/>
<path d="M83.39,77.07h-0.61v-0.61C82.78,76.8,83.04,77.07,83.39,77.07z"/>
<path d="M45.73,83.38v4.48c0,0.34-0.27,0.61-0.61,0.61h-2.24v2.24c0,0.34-0.27,0.61-0.61,0.61h-4.48c-0.34,0-0.61-0.27-0.61-0.61
	v-5.09h-2.24c-0.34,0-0.61-0.27-0.61-0.61v-1.63c0-0.34,0.27-0.61,0.61-0.61h2.24v-5.09c0-0.34,0.27-0.61,0.61-0.61h1.63
	c0.34,0,0.61,0.27,0.61,0.61v5.09h5.09C45.46,82.77,45.73,83.04,45.73,83.38z"/>
<path d="M46.34,77.07h1.64c0.33,0,0.61,0.27,0.61,0.61v1.64c0,0.33-0.27,0.61-0.61,0.61h-1.64c-0.33,0-0.61-0.27-0.61-0.61v-1.64
	C45.73,77.34,46,77.07,46.34,77.07z"/>
<path d="M51.43,77.07v0.61c0-0.34-0.27-0.61-0.61-0.61H51.43z"/>
<path d="M65.68,77.07v0.61c0-0.34-0.27-0.61-0.61-0.61H65.68z"/>
<path d="M86.24,79.92h-0.62v-0.61C85.62,79.65,85.9,79.92,86.24,79.92z"/>
<path d="M89.08,77.07h1.64c0.33,0,0.61,0.27,0.61,0.61v1.64c0,0.33-0.27,0.61-0.61,0.61h-1.64c-0.33,0-0.61-0.27-0.61-0.61v-1.64
	C88.47,77.34,88.75,77.07,89.08,77.07z"/>
<path d="M34.33,77.68v4.48c0,0.34-0.27,0.61-0.61,0.61h-1.63c-0.34,0-0.61-0.27-0.61-0.61v-4.48c0-0.34,0.27-0.61,0.61-0.61h1.63
	C34.06,77.07,34.33,77.34,34.33,77.68z"/>
<path d="M37.18,82.16v0.61h-0.61C36.91,82.77,37.18,82.5,37.18,82.16z"/>
<path d="M40.64,82.77h-0.61v-0.61C40.03,82.5,40.3,82.77,40.64,82.77z"/>
<path d="M57.12,79.92v0.61c0-0.34-0.27-0.61-0.61-0.61H57.12z"/>
<path d="M57.12,82.16v0.61h-0.61C56.86,82.77,57.12,82.5,57.12,82.16z"/>
<path d="M62.83,82.16v0.61h-0.62C62.55,82.77,62.83,82.5,62.83,82.16z"/>
<path d="M60.59,82.77h-0.61v-0.61C59.98,82.5,60.25,82.77,60.59,82.77z"/>
<path d="M71.37,79.92v0.61c0-0.34-0.26-0.61-0.61-0.61H71.37z"/>
<path d="M74.83,79.92c-0.29,0-0.54,0.21-0.6,0.49c-0.01,0.04-0.01,0.08-0.01,0.12v-0.61H74.83z"/>
<path d="M77.08,79.92v0.61c0-0.34-0.27-0.61-0.61-0.61H77.08z"/>
<path d="M77.08,82.16v0.61h-0.61C76.8,82.77,77.08,82.5,77.08,82.16z"/>
<path d="M80.54,79.92c-0.34,0-0.61,0.27-0.61,0.61v-0.61H80.54z"/>
<path d="M82.78,79.92v0.61c0-0.34-0.27-0.61-0.61-0.61H82.78z"/>
<path d="M82.78,82.16v0.61h-0.61C82.51,82.77,82.78,82.5,82.78,82.16z"/>
<path d="M80.54,82.77h-0.61v-0.61C79.93,82.5,80.19,82.77,80.54,82.77z"/>
<path d="M89.08,82.77h-0.61v-0.61c0,0.04,0,0.08,0.01,0.12C88.54,82.56,88.79,82.77,89.08,82.77z"/>
<path d="M68.53,85.01v0.61h-0.61C68.26,85.62,68.53,85.35,68.53,85.01z"/>
<path d="M66.29,85.62h-0.61v-0.61C65.68,85.35,65.94,85.62,66.29,85.62z"/>
<path d="M74.22,85.01v0.61h-0.61C73.96,85.62,74.22,85.35,74.22,85.01z"/>
<path d="M71.99,85.62h-0.62v-0.61c0,0.04,0,0.08,0.01,0.12C71.44,85.41,71.69,85.62,71.99,85.62z"/>
<path d="M37.18,85.62v0.61c0-0.34-0.27-0.61-0.61-0.61H37.18z"/>
<path d="M57.12,85.62v0.61c0-0.34-0.27-0.61-0.61-0.61H57.12z"/>
<path d="M77.69,85.62c-0.34,0-0.61,0.27-0.61,0.61v-0.61H77.69z"/>
<path d="M79.93,85.62v0.61c0-0.34-0.27-0.61-0.61-0.61H79.93z"/>
<path d="M79.93,87.86v0.61h-0.61C79.65,88.47,79.93,88.2,79.93,87.86z"/>
<path d="M89.08,85.62c-0.29,0-0.54,0.21-0.6,0.49c-0.01,0.04-0.01,0.08-0.01,0.12v-0.61H89.08z"/>
<path d="M43.49,88.47c-0.34,0-0.61,0.27-0.61,0.61v-0.61H43.49z"/>
<path d="M59.98,88.47v0.61c0-0.34-0.27-0.61-0.61-0.61H59.98z"/>
<path d="M63.44,88.47c-0.34,0-0.61,0.27-0.61,0.61v-0.61H63.44z"/>
<path d="M65.68,88.47v0.61c0-0.34-0.27-0.61-0.61-0.61H65.68z"/>
<path d="M71.99,88.47c-0.3,0-0.55,0.21-0.61,0.49c-0.01,0.04-0.01,0.08-0.01,0.12v-0.61H71.99z"/>
<path d="M86.24,88.47c-0.3,0-0.55,0.21-0.61,0.49c-0.01,0.04-0.01,0.08-0.01,0.12v-0.61H86.24z"/>
<path d="M9.28,8.67c-0.33,0-0.61,0.27-0.61,0.61v2.25v2.85v2.85v2.85v2.85v2.85v2.24c0,0.33,0.27,0.61,0.61,0.61h18.75
	c0.33,0,0.61-0.27,0.61-0.61v-2.25v-2.85v-2.85v-2.85v-2.85v-2.85V9.27c0-0.33-0.27-0.61-0.61-0.61C28.03,8.67,9.28,8.67,9.28,8.67z
	 M25.78,14.37v2.85v2.85v2.85v2.5c0,0.19-0.16,0.35-0.35,0.35H11.88c-0.19,0-0.35-0.16-0.35-0.35v-2.5v-2.85v-2.85v-2.85v-2.5
	c0-0.19,0.16-0.35,0.35-0.35h13.55c0.19,0,0.35,0.16,0.35,0.35V14.37z"/>
<path d="M22.93,20.07v-2.85v-2.25c0-0.33-0.27-0.61-0.61-0.61h-7.34c-0.33,0-0.61,0.27-0.61,0.61v2.25v2.85v2.25
	c0,0.33,0.27,0.61,0.61,0.61h7.34c0.33,0,0.61-0.27,0.61-0.61V20.07z"/>
<path d="M71.97,8.67c-0.33,0-0.61,0.27-0.61,0.61v2.25v2.85v2.85v2.85v2.85v2.85v2.24c0,0.33,0.27,0.61,0.61,0.61h18.75
	c0.33,0,0.61-0.27,0.61-0.61v-2.25v-2.85v-2.85v-2.85v-2.85v-2.85V9.27c0-0.33-0.27-0.61-0.61-0.61
	C90.72,8.67,71.97,8.67,71.97,8.67z M88.47,14.37v2.85v2.85v2.85v2.5c0,0.19-0.16,0.35-0.35,0.35H74.58c-0.19,0-0.35-0.16-0.35-0.35
	v-2.5v-2.85v-2.85v-2.85v-2.5c0-0.19,0.16-0.35,0.35-0.35h13.55c0.19,0,0.35,0.16,0.35,0.35V14.37z"/>
<path d="M85.62,20.07v-2.85v-2.25c0-0.33-0.27-0.61-0.61-0.61h-7.34c-0.33,0-0.61,0.27-0.61,0.61v2.25v2.85v2.25
	c0,0.33,0.27,0.61,0.61,0.61h7.34c0.33,0,0.61-0.27,0.61-0.61C85.62,22.32,85.62,20.07,85.62,20.07z"/>
<path d="M9.28,71.37c-0.33,0-0.61,0.27-0.61,0.61v2.25v2.85v2.85v2.85v2.85v2.85v2.25c0,0.33,0.27,0.61,0.61,0.61h18.75
	c0.33,0,0.61-0.27,0.61-0.61v-2.25v-2.86v-2.85v-2.85v-2.85v-2.85v-2.25c0-0.33-0.27-0.61-0.61-0.61
	C28.03,71.37,9.28,71.37,9.28,71.37z M25.78,77.07v2.85v2.85v2.85v2.5c0,0.19-0.16,0.35-0.35,0.35H11.88
	c-0.19,0-0.35-0.16-0.35-0.35v-2.5v-2.85v-2.85v-2.85v-2.5c0-0.19,0.16-0.35,0.35-0.35h13.55c0.19,0,0.35,0.16,0.35,0.35V77.07z"/>
<path d="M22.93,82.77v-2.85v-2.25c0-0.33-0.27-0.61-0.61-0.61h-7.34c-0.33,0-0.61,0.27-0.61,0.61v2.25v2.85v2.25
	c0,0.33,0.27,0.61,0.61,0.61h7.34c0.33,0,0.61-0.27,0.61-0.61V82.77z"/>
<path d="M36.99,37.47h26.01c0.34,0,0.61,0.27,0.61,0.61v23.83c0,0.34-0.27,0.61-0.61,0.61H36.99c-0.34,0-0.61-0.27-0.61-0.61V38.08
	C36.38,37.75,36.66,37.47,36.99,37.47z"/>
<path class="st0" d="M46.17,49.75l-0.7,1.64c-0.11,0.28-0.25,0.47-0.41,0.59c-0.16,0.11-0.36,0.17-0.59,0.17l-0.4,0.02l-0.01-0.57
	l0.39-0.01c0,0,0.17-0.02,0.23-0.07c0.06-0.05,0.11-0.12,0.16-0.23l0.01-0.02l-1.05-2.43h0.72l0.68,1.64l0.68-1.64h0.13
	c-0.51-1.79-2.15-3.1-4.1-3.1c-2.36,0-4.26,1.91-4.26,4.26c0,2.36,1.91,4.26,4.26,4.26s4.26-1.91,4.26-4.26
	C46.18,49.92,46.18,49.83,46.17,49.75z M43.58,51.25h-0.7v-1.27c0-0.19-0.04-0.33-0.12-0.43c-0.08-0.09-0.19-0.14-0.34-0.14
	c-0.16,0-0.29,0.05-0.39,0.16c-0.1,0.11-0.14,0.26-0.14,0.47v1.21h-0.7v-1.27c0-0.38-0.15-0.57-0.46-0.57
	c-0.16,0-0.29,0.05-0.39,0.16c-0.1,0.11-0.14,0.26-0.14,0.47v1.21h-0.7v-2.41h0.67v0.28c0.09-0.1,0.2-0.18,0.33-0.23
	c0.13-0.05,0.27-0.08,0.43-0.08c0.17,0,0.32,0.03,0.46,0.1c0.14,0.07,0.25,0.17,0.33,0.29c0.1-0.13,0.22-0.22,0.37-0.29
	c0.15-0.07,0.32-0.1,0.5-0.1c0.3,0,0.54,0.09,0.72,0.27c0.18,0.18,0.27,0.45,0.27,0.8V51.25z"/>
<g>
	<path class="st0" d="M47.99,48.79c-0.39,0-0.78,0.1-1.05,0.29l0.25,0.49c0.18-0.14,0.44-0.23,0.7-0.23c0.38,0,0.56,0.18,0.56,0.48
		h-0.56c-0.74,0-1.05,0.3-1.05,0.73c0,0.42,0.34,0.74,0.91,0.74c0.36,0,0.61-0.12,0.74-0.34v0.3h0.66v-1.39
		C49.16,49.14,48.73,48.79,47.99,48.79z M48.46,50.5c-0.08,0.22-0.29,0.33-0.52,0.33c-0.25,0-0.4-0.12-0.4-0.29
		c0-0.16,0.1-0.29,0.43-0.29h0.48V50.5z"/>
	<path class="st0" d="M51,50.72c-0.36,0-0.64-0.25-0.64-0.67c0-0.43,0.28-0.67,0.64-0.67c0.22,0,0.42,0.1,0.55,0.34l0.55-0.29
		c-0.18-0.4-0.58-0.62-1.09-0.62c-0.79,0-1.36,0.52-1.36,1.25c0,0.73,0.57,1.25,1.36,1.25c0.51,0,0.91-0.23,1.09-0.62l-0.55-0.3
		C51.42,50.62,51.22,50.72,51,50.72z"/>
	<path class="st0" d="M53.65,50.72c-0.36,0-0.64-0.25-0.64-0.67c0-0.43,0.28-0.67,0.64-0.67c0.22,0,0.42,0.1,0.55,0.34l0.55-0.29
		c-0.18-0.4-0.58-0.62-1.09-0.62c-0.79,0-1.36,0.52-1.36,1.25c0,0.73,0.57,1.25,1.36,1.25c0.51,0,0.91-0.23,1.09-0.62l-0.55-0.3
		C54.06,50.62,53.87,50.72,53.65,50.72z"/>
	<path class="st0" d="M57.51,50.06c0-0.78-0.55-1.26-1.27-1.26c-0.74,0-1.3,0.53-1.3,1.25c0,0.72,0.55,1.25,1.39,1.25
		c0.44,0,0.78-0.14,1.01-0.39l-0.38-0.41c-0.17,0.16-0.35,0.24-0.61,0.24c-0.37,0-0.63-0.19-0.7-0.49h1.84
		C57.5,50.19,57.51,50.11,57.51,50.06z M55.64,49.84c0.05-0.31,0.28-0.51,0.6-0.51c0.32,0,0.55,0.2,0.6,0.51H55.64z"/>
	<path class="st0" d="M58.47,49.56c0-0.13,0.14-0.23,0.45-0.23c0.22,0,0.46,0.05,0.7,0.18l0.24-0.5c-0.23-0.14-0.6-0.21-0.94-0.21
		c-0.71,0-1.13,0.33-1.13,0.79c0,0.97,1.47,0.57,1.47,0.96c0,0.14-0.12,0.22-0.45,0.22c-0.3,0-0.63-0.1-0.85-0.24l-0.24,0.51
		c0.23,0.15,0.64,0.26,1.06,0.26c0.73,0,1.15-0.32,1.15-0.77C59.95,49.57,58.47,49.97,58.47,49.56z"/>
	<path class="st0" d="M60.88,49.56c0-0.13,0.14-0.23,0.45-0.23c0.22,0,0.46,0.05,0.7,0.18l0.24-0.5c-0.23-0.14-0.6-0.21-0.94-0.21
		c-0.71,0-1.13,0.33-1.13,0.79c0,0.97,1.47,0.57,1.47,0.96c0,0.14-0.12,0.22-0.45,0.22c-0.3,0-0.63-0.1-0.85-0.24l-0.24,0.51
		c0.23,0.15,0.64,0.26,1.06,0.26c0.73,0,1.15-0.32,1.15-0.77C62.35,49.57,60.88,49.97,60.88,49.56z"/>
</g>
</svg>
