<?xml version="1.0" encoding="utf-8"?>
<!-- Generator: Adobe Illustrator 24.3.0, SVG Export Plug-In . SVG Version: 6.00 Build 0)  -->
<svg version="1.2" baseProfile="tiny" id="Layer_1" xmlns="http://www.w3.org/2000/svg" xmlns:xlink="http://www.w3.org/1999/xlink"
	 x="0px" y="0px" viewBox="0 0 22.46 19.09" overflow="visible" xml:space="preserve">
<g>
	<path fill="#333333" d="M19.59,19.09c0-0.76-0.06-1.61-0.18-2.54c-0.12-0.93-0.3-1.89-0.55-2.87s-0.56-1.94-0.93-2.89
		c-0.37-0.95-0.82-1.83-1.33-2.64c-0.51-0.8-1.1-1.5-1.76-2.09c-0.66-0.59-1.4-1.01-2.21-1.25v14.28h-2.8V4.81
		C9.02,5.05,8.28,5.47,7.62,6.06C6.96,6.65,6.37,7.35,5.85,8.16c-0.51,0.81-0.96,1.69-1.33,2.64c-0.38,0.95-0.69,1.91-0.93,2.89
		s-0.43,1.93-0.55,2.87c-0.12,0.93-0.18,1.78-0.18,2.54H0c0-1.06,0.07-2.18,0.22-3.36s0.38-2.35,0.7-3.52
		c0.32-1.17,0.74-2.29,1.25-3.38c0.51-1.09,1.13-2.07,1.85-2.96c0.73-0.88,1.57-1.63,2.53-2.22c0.97-0.6,2.06-1,3.28-1.19V0h2.8
		v2.45c1.22,0.2,2.32,0.59,3.28,1.19c0.97,0.6,1.81,1.34,2.53,2.22c0.72,0.88,1.34,1.87,1.85,2.96c0.51,1.09,0.92,2.22,1.25,3.38
		c0.33,1.17,0.56,2.34,0.7,3.52c0.14,1.18,0.22,2.3,0.22,3.36H19.59z"/>
</g>
</svg>
