<?xml version="1.0" encoding="utf-8"?>
<!-- Generator: Adobe Illustrator 24.3.0, SVG Export Plug-In . SVG Version: 6.00 Build 0)  -->
<svg version="1.1" baseProfile="basic" id="Layer_1"
	 xmlns="http://www.w3.org/2000/svg" xmlns:xlink="http://www.w3.org/1999/xlink" x="0px" y="0px" viewBox="0 0 60 26"
	 xml:space="preserve">
<g>
	<path fill="#BEC6D0" d="M56.038,10.354c-1.172,0-2.344,0-3.526,0c0,0.684,0,1.361,0,2.052c1.035,0,2.071,0,3.117,0
		c0,0.444,0,0.874,0,1.321c-1.035,0-2.074,0-3.124,0c0,1.089,0,2.163,0,3.246c-0.549,0-1.088,0-1.633,0c0-2.647,0-5.291,0-7.955
		c1.724,0,3.445,0,5.166,0C56.038,9.463,56.038,9.909,56.038,10.354z"/>
	<path fill="#BEC6D0" d="M39.623,16.983c0-2.662,0-5.302,0-7.955c0.038-0.003,0.074-0.008,0.11-0.008
		c0.802,0,1.605-0.01,2.407,0.003c0.976,0.016,1.837,0.332,2.526,1.043c0.563,0.581,0.872,1.291,0.974,2.085
		c0.089,0.694,0.084,1.39-0.066,2.079c-0.32,1.467-1.417,2.49-2.91,2.706c-0.174,0.025-0.351,0.043-0.526,0.044
		c-0.802,0.005-1.605,0.002-2.407,0.002C39.698,16.983,39.665,16.983,39.623,16.983z M41.26,15.665c0.298,0,0.584,0.01,0.868-0.002
		c0.924-0.039,1.515-0.501,1.764-1.392c0.067-0.24,0.109-0.493,0.124-0.742c0.036-0.595,0.049-1.193-0.111-1.776
		c-0.199-0.728-0.629-1.241-1.403-1.356c-0.399-0.059-0.812-0.03-1.219-0.04c-0.006,0-0.013,0.009-0.023,0.016
		C41.26,12.131,41.26,13.89,41.26,15.665z"/>
	<path fill="#BEC6D0" d="M32.806,16.98c-0.577,0-1.148,0-1.735,0c0.107-0.289,0.212-0.571,0.316-0.853
		c0.862-2.323,1.724-4.646,2.582-6.97c0.037-0.101,0.08-0.142,0.194-0.139c0.412,0.009,0.824,0.007,1.235,0.001
		c0.104-0.001,0.151,0.028,0.189,0.129c0.693,1.867,1.391,3.732,2.087,5.598c0.257,0.687,0.513,1.375,0.769,2.062
		c0.02,0.054,0.039,0.109,0.064,0.176c-0.105,0-0.197,0-0.288,0c-0.45,0-0.899-0.002-1.349,0.002
		c-0.076,0.001-0.108-0.023-0.132-0.096c-0.155-0.474-0.318-0.946-0.472-1.42c-0.03-0.094-0.067-0.131-0.173-0.131
		c-0.874,0.005-1.748,0.004-2.622,0.001c-0.09,0-0.131,0.024-0.159,0.112c-0.147,0.459-0.301,0.916-0.452,1.374
		C32.843,16.877,32.824,16.928,32.806,16.98z M33.797,14.003c0.662,0,1.311,0,1.98,0c-0.33-0.983-0.657-1.957-0.997-2.969
		C34.446,12.044,34.123,13.019,33.797,14.003z"/>
	<path fill="#A3AAB4" d="M9.152,16.129c0,1.179,0,2.345,0,3.524c1.179,0,2.346,0,3.538,0c-0.522,1.251-1.268,2.33-2.148,3.334
		c-0.078-0.063-0.148-0.116-0.215-0.172c-0.809-0.672-1.729-1.119-2.756-1.344c-0.116-0.026-0.2-0.055-0.23-0.197
		c-0.227-1.085-0.71-2.047-1.43-2.89c-0.029-0.035-0.056-0.072-0.083-0.107C6.23,17.752,8.354,16.375,9.152,16.129z"/>
	<path fill="#A3AAB4" d="M9.15,6.339c0,1.19,0,2.353,0,3.542C7.901,9.362,6.823,8.616,5.817,7.736
		c0.065-0.081,0.121-0.153,0.179-0.223c0.668-0.806,1.115-1.722,1.336-2.745c0.032-0.15,0.099-0.21,0.247-0.242
		c0.865-0.184,1.657-0.538,2.376-1.053c0.197-0.142,0.384-0.298,0.589-0.457c0.876,0.997,1.62,2.075,2.144,3.322
		C11.504,6.339,10.336,6.339,9.15,6.339z"/>
	<path fill="#A3AAB4" d="M21.071,22.979c-0.873-0.997-1.618-2.074-2.139-3.319c1.185,0,2.351,0,3.534,0c0-1.182,0-2.351,0-3.542
		c1.251,0.522,2.329,1.266,3.332,2.143c-0.027,0.037-0.046,0.068-0.069,0.095c-0.736,0.858-1.224,1.839-1.462,2.944
		c-0.019,0.09-0.056,0.132-0.149,0.152c-0.804,0.172-1.556,0.474-2.241,0.93C21.605,22.565,21.35,22.772,21.071,22.979z"/>
	<path fill="#A3AAB4" d="M25.802,7.736c-1.001,0.879-2.08,1.621-3.328,2.145c0-1.185,0-2.353,0-3.533c-1.184,0-2.351,0-3.544,0
		c0.52-1.252,1.268-2.329,2.146-3.333c0.034,0.026,0.057,0.042,0.079,0.061c0.864,0.743,1.852,1.236,2.966,1.474
		c0.086,0.018,0.125,0.054,0.144,0.142c0.159,0.735,0.419,1.433,0.824,2.069c0.175,0.275,0.38,0.532,0.572,0.797
		C25.702,7.615,25.748,7.669,25.802,7.736z"/>
	<path fill="#BEC6D0" d="M6.351,12.992c0.869,0.853,1.701,1.671,2.553,2.506c-1.263,0.517-2.549,0.754-3.881,0.84
		c-0.027-0.216-0.049-0.418-0.077-0.62c-0.122-0.858-0.399-1.665-0.867-2.395c-0.152-0.237-0.157-0.4-0.003-0.642
		c0.541-0.85,0.831-1.79,0.917-2.794c0.006-0.067,0.017-0.133,0.03-0.223c1.325,0.081,2.613,0.322,3.869,0.833
		C8.046,11.327,7.214,12.145,6.351,12.992z"/>
	<path fill="#BEC6D0" d="M15.82,3.547c-0.855,0.868-1.673,1.7-2.51,2.55c-0.516-1.261-0.754-2.546-0.84-3.878
		c0.216-0.027,0.418-0.048,0.62-0.077c0.859-0.122,1.667-0.397,2.396-0.867c0.245-0.158,0.413-0.146,0.653,0.005
		c0.849,0.535,1.785,0.825,2.785,0.909c0.067,0.006,0.133,0.017,0.224,0.03c-0.08,1.325-0.322,2.612-0.832,3.865
		C17.485,5.24,16.667,4.408,15.82,3.547z"/>
	<path fill="#BEC6D0" d="M15.8,22.453c0.854-0.868,1.672-1.7,2.509-2.55c0.517,1.262,0.754,2.547,0.841,3.879
		c-0.216,0.027-0.419,0.049-0.621,0.077c-0.855,0.121-1.659,0.394-2.385,0.861c-0.247,0.159-0.417,0.158-0.664,0.002
		c-0.848-0.536-1.785-0.825-2.785-0.91c-0.067-0.006-0.133-0.018-0.224-0.03c0.08-1.324,0.322-2.612,0.833-3.866
		C14.135,20.761,14.953,21.592,15.8,22.453z"/>
	<path fill="#BEC6D0" d="M26.597,16.338c-1.33-0.085-2.614-0.323-3.859-0.83c0.841-0.826,1.675-1.645,2.532-2.487
		c-0.872-0.857-1.706-1.677-2.559-2.515c1.27-0.519,2.556-0.757,3.886-0.842c0.033,0.264,0.055,0.514,0.097,0.761
		c0.146,0.854,0.445,1.651,0.918,2.377c0.097,0.149,0.094,0.253-0.002,0.4c-0.47,0.723-0.769,1.516-0.914,2.366
		C26.654,15.815,26.631,16.066,26.597,16.338z"/>
	<path fill="#BEC6D0" d="M47.354,9.027c0.54,0,1.075,0,1.619,0c0,2.65,0,5.294,0,7.947c-0.536,0-1.072,0-1.619,0
		C47.354,14.329,47.354,11.682,47.354,9.027z"/>
	<path fill="#BEC6D0" d="M7.318,12.991c0.746-0.727,1.487-1.45,2.241-2.186c0.446,0.221,0.892,0.511,1.315,0.837
		c0.485,0.373,0.904,0.813,1.303,1.274c0.056,0.064,0.049,0.109-0.003,0.171c-0.716,0.857-1.557,1.561-2.551,2.077
		c-0.063,0.033-0.11,0.052-0.174-0.013c-0.695-0.706-1.395-1.408-2.093-2.111C7.348,13.032,7.341,13.021,7.318,12.991z"/>
	<path fill="#BEC6D0" d="M22.061,10.803c0.754,0.735,1.495,1.458,2.247,2.191c-0.755,0.734-1.497,1.457-2.258,2.197
		c-0.399-0.198-0.819-0.465-1.219-0.766c-0.514-0.386-0.96-0.841-1.376-1.326c-0.051-0.059-0.079-0.105-0.015-0.181
		c0.736-0.881,1.603-1.599,2.631-2.118C22.079,10.795,22.088,10.794,22.061,10.803z"/>
	<path fill="#BEC6D0" d="M13.61,6.745c0.734-0.752,1.456-1.491,2.182-2.235c0.04,0.033,0.067,0.051,0.089,0.073
		c0.689,0.683,1.377,1.367,2.068,2.048c0.062,0.061,0.069,0.106,0.029,0.182c-0.519,0.997-1.225,1.841-2.087,2.559
		c-0.059,0.049-0.102,0.05-0.162,0.001C14.841,8.632,14.117,7.76,13.61,6.745z"/>
	<path fill="#BEC6D0" d="M15.801,21.493c-0.731-0.75-1.454-1.492-2.189-2.245c0.424-0.832,0.994-1.599,1.71-2.256
		c0.13-0.119,0.265-0.233,0.395-0.352c0.062-0.057,0.11-0.066,0.181-0.006c0.85,0.712,1.55,1.544,2.067,2.528
		c0.047,0.09,0.051,0.145-0.029,0.224c-0.684,0.67-1.362,1.346-2.042,2.02C15.87,21.43,15.845,21.452,15.801,21.493z"/>
	<path fill="#A3AAB4" d="M13.284,15.525c0.133,1.197,0.02,2.355-0.353,3.481c-1.044,0-2.077,0-3.125,0c0-1.046,0-2.081,0-3.13
		C10.927,15.505,12.086,15.392,13.284,15.525z"/>
	<path fill="#A3AAB4" d="M9.822,6.994c1.032,0,2.061,0,3.108,0c0.374,1.127,0.487,2.287,0.353,3.488
		c-0.219,0.015-0.431,0.033-0.644,0.042c-0.941,0.038-1.859-0.091-2.757-0.372c-0.055-0.017-0.094-0.033-0.094-0.107
		c0.008-1.004,0.012-2.008,0.018-3.011C9.806,7.026,9.812,7.018,9.822,6.994z"/>
	<path fill="#A3AAB4" d="M18.689,6.995c1.043,0,2.077,0,3.119,0c0.003,0.045,0.007,0.081,0.007,0.117
		c0.005,0.962,0.007,1.924,0.015,2.886c0.001,0.096-0.026,0.135-0.121,0.164c-0.945,0.289-1.909,0.419-2.897,0.351
		c-0.126-0.009-0.252-0.015-0.377-0.024c-0.029-0.002-0.058-0.008-0.1-0.014C18.201,9.286,18.315,8.125,18.689,6.995z"/>
	<path fill="#A3AAB4" d="M21.806,19.006c-1.041,0-2.074,0-3.117,0c-0.374-1.127-0.486-2.285-0.352-3.487
		c0.224-0.015,0.445-0.035,0.666-0.043c0.932-0.035,1.842,0.094,2.732,0.372c0.062,0.019,0.097,0.04,0.097,0.118
		c-0.007,0.995-0.011,1.991-0.016,2.986C21.815,18.964,21.811,18.976,21.806,19.006z"/>
</g>
</svg>
