<?xml version="1.0" encoding="utf-8"?>
<!-- Generator: Adobe Illustrator 24.3.0, SVG Export Plug-In . SVG Version: 6.00 Build 0)  -->
<svg version="1.2" baseProfile="tiny" id="Layer_1" xmlns="http://www.w3.org/2000/svg" xmlns:xlink="http://www.w3.org/1999/xlink"
	 x="0px" y="0px" viewBox="0 0 110.27 12.63" overflow="visible" xml:space="preserve">
<g>
	<g>
		<path fill="#808080" d="M0,3.48h2.12c0.65,0,1.19,0.19,1.6,0.58s0.62,0.88,0.62,1.48c0,0.62-0.21,1.12-0.62,1.51
			c-0.41,0.39-0.95,0.59-1.6,0.59H1v2.9H0V3.48z M1,4.31V6.8h0.99c0.38,0,0.7-0.12,0.96-0.35c0.26-0.23,0.38-0.53,0.38-0.91
			s-0.13-0.67-0.38-0.9S2.38,4.31,2,4.31H1z"/>
		<path fill="#808080" d="M7.52,5.06c0.09,0,0.21,0.01,0.37,0.02L7.89,6.02c-0.15-0.04-0.3-0.05-0.45-0.05
			c-0.4,0-0.74,0.12-1.03,0.35C6.12,6.54,5.97,6.86,5.97,7.26v3.28H5V5.17h0.92v0.1v0.52C6.34,5.3,6.87,5.06,7.52,5.06z"/>
		<path fill="#808080" d="M8.49,5.86C9,5.31,9.67,5.04,10.47,5.04s1.47,0.27,1.98,0.82c0.51,0.55,0.77,1.21,0.77,2
			c0,0.78-0.26,1.44-0.77,1.99c-0.51,0.55-1.17,0.83-1.98,0.83S9,10.39,8.49,9.84C7.98,9.29,7.72,8.63,7.72,7.85
			C7.72,7.07,7.98,6.4,8.49,5.86z M11.75,6.46c-0.34-0.37-0.76-0.56-1.28-0.56S9.53,6.08,9.2,6.46C8.86,6.83,8.69,7.3,8.69,7.85
			c0,0.56,0.17,1.03,0.51,1.4c0.34,0.37,0.76,0.56,1.28,0.56s0.94-0.19,1.28-0.56c0.34-0.37,0.51-0.84,0.51-1.4
			C12.25,7.3,12.08,6.83,11.75,6.46z"/>
		<path fill="#808080" d="M19.27,10.54h-0.93v-0.36c0-0.1,0.01-0.25,0.02-0.44c-0.18,0.27-0.43,0.5-0.76,0.67
			c-0.33,0.18-0.72,0.26-1.16,0.26c-0.82,0-1.48-0.27-1.99-0.81c-0.51-0.54-0.76-1.21-0.76-2s0.25-1.46,0.76-1.99
			c0.51-0.54,1.17-0.8,1.99-0.8c0.44,0,0.83,0.09,1.16,0.26c0.33,0.17,0.58,0.39,0.74,0.64c0-0.03,0-0.07-0.01-0.13
			c-0.01-0.06-0.01-0.11-0.02-0.15c0-0.04-0.01-0.09-0.01-0.13V2.98h0.97V10.54z M16.5,5.92c-0.51,0-0.95,0.19-1.31,0.56
			s-0.54,0.83-0.54,1.38c0,0.55,0.18,1.01,0.54,1.39s0.8,0.56,1.31,0.56c0.54,0,0.99-0.18,1.33-0.56c0.34-0.37,0.52-0.83,0.52-1.39
			c0-0.55-0.17-1.01-0.52-1.38S17.04,5.92,16.5,5.92z"/>
		<path fill="#808080" d="M25.19,5.17v3.32c0,0.7-0.22,1.24-0.67,1.62c-0.44,0.38-0.99,0.57-1.64,0.57c-0.65,0-1.19-0.19-1.64-0.57
			c-0.45-0.38-0.67-0.92-0.67-1.62V5.17h0.97v3.29c0,0.45,0.13,0.79,0.38,1.02s0.58,0.35,0.96,0.35c0.39,0,0.71-0.11,0.97-0.34
			c0.26-0.23,0.38-0.57,0.38-1.02V5.17H25.19z"/>
		<path fill="#808080" d="M28.84,5.06c0.78,0,1.42,0.28,1.91,0.85l-0.58,0.64c-0.31-0.42-0.75-0.63-1.33-0.63
			c-0.54,0-0.98,0.18-1.32,0.54C27.18,6.82,27,7.29,27,7.84c0,0.57,0.17,1.03,0.52,1.4c0.35,0.37,0.79,0.56,1.33,0.56
			c0.54,0,0.98-0.2,1.31-0.59l0.62,0.59c-0.51,0.58-1.15,0.87-1.92,0.87c-0.84,0-1.52-0.27-2.04-0.81c-0.52-0.54-0.79-1.21-0.79-2
			s0.26-1.46,0.78-1.99C27.32,5.33,28,5.06,28.84,5.06z"/>
		<path fill="#808080" d="M33.4,5.04c0.72,0,1.32,0.25,1.81,0.76c0.49,0.51,0.73,1.15,0.73,1.94c0,0.18-0.01,0.34-0.02,0.48h-4.18
			c0.02,0.44,0.2,0.81,0.52,1.12c0.33,0.31,0.73,0.46,1.22,0.46c0.56,0,1.05-0.23,1.48-0.7l0.62,0.58
			c-0.54,0.66-1.25,0.99-2.13,0.99c-0.81,0-1.46-0.27-1.97-0.81c-0.51-0.54-0.76-1.21-0.76-2s0.25-1.46,0.75-2
			C31.96,5.31,32.6,5.04,33.4,5.04z M33.41,5.9c-0.47,0-0.86,0.15-1.17,0.45s-0.48,0.64-0.51,1.04h3.23
			c-0.01-0.42-0.16-0.78-0.47-1.06C34.2,6.04,33.83,5.9,33.41,5.9z"/>
		<path fill="#808080" d="M41.99,10.54h-0.93v-0.36c0-0.1,0.01-0.25,0.02-0.44c-0.18,0.27-0.43,0.5-0.76,0.67
			c-0.33,0.18-0.72,0.26-1.16,0.26c-0.82,0-1.48-0.27-1.99-0.81c-0.51-0.54-0.76-1.21-0.76-2s0.25-1.46,0.76-1.99
			c0.51-0.54,1.17-0.8,1.99-0.8c0.44,0,0.83,0.09,1.16,0.26c0.33,0.17,0.58,0.39,0.74,0.64c0-0.03,0-0.07-0.01-0.13
			c-0.01-0.06-0.01-0.11-0.02-0.15c0-0.04-0.01-0.09-0.01-0.13V2.98h0.97V10.54z M39.22,5.92c-0.51,0-0.95,0.19-1.31,0.56
			s-0.54,0.83-0.54,1.38c0,0.55,0.18,1.01,0.54,1.39s0.8,0.56,1.31,0.56c0.54,0,0.99-0.18,1.33-0.56c0.34-0.37,0.52-0.83,0.52-1.39
			c0-0.55-0.17-1.01-0.52-1.38S39.76,5.92,39.22,5.92z"/>
		<path fill="#808080" d="M47.1,2.98v2.56c0,0.09-0.01,0.23-0.02,0.42c0.16-0.26,0.41-0.47,0.74-0.64c0.33-0.17,0.72-0.26,1.16-0.26
			c0.82,0,1.48,0.27,1.99,0.8c0.51,0.54,0.76,1.2,0.76,1.99s-0.25,1.46-0.76,2c-0.51,0.54-1.17,0.81-1.99,0.81
			c-0.44,0-0.83-0.09-1.16-0.26s-0.59-0.4-0.78-0.67c0.02,0.15,0.03,0.29,0.03,0.44v0.36h-0.95V2.98H47.1z M48.92,5.92
			c-0.54,0-0.99,0.19-1.34,0.56c-0.35,0.37-0.52,0.83-0.52,1.38c0,0.56,0.17,1.02,0.52,1.39c0.35,0.37,0.79,0.56,1.34,0.56
			c0.51,0,0.95-0.19,1.31-0.56s0.54-0.84,0.54-1.39c0-0.55-0.18-1.01-0.54-1.38S49.43,5.92,48.92,5.92z"/>
		<path fill="#808080" d="M53.99,12.63h-1.01l0.97-2.24l-2.09-5.21h1.08l1.39,3.67c0.07,0.24,0.12,0.39,0.13,0.44h0.01
			c0.06-0.23,0.1-0.37,0.13-0.44L56,5.17h1.08L53.99,12.63z"/>
	</g>
	<g>
		<path fill="#808080" d="M62.46,7.96c0-0.94,0.01-1.87,0-2.81c-0.01-0.78,0.35-1.35,1.01-1.74c0.51-0.3,1.08-0.47,1.66-0.52
			c2.15-0.18,4.31-0.23,6.46,0.05c0.28,0.04,0.55,0.12,0.82,0.21c1.13,0.38,1.6,1.03,1.6,2.21c0,1.8,0.01,3.6,0,5.41
			c0,0.68-0.31,0.94-0.96,0.86c-0.4-0.04-0.6-0.23-0.65-0.64c-0.02-0.17-0.02-0.35-0.02-0.53c0-1.68,0-3.36,0-5.03
			c0-0.73-0.23-1.02-0.95-1.18c-0.33-0.07-0.66-0.12-1-0.12c-1.47-0.01-2.94-0.01-4.41,0c-0.37,0-0.74,0.05-1.1,0.15
			c-0.66,0.19-0.86,0.46-0.86,1.14c0,1.78,0,3.57,0,5.35c0,0.63-0.24,0.87-0.81,0.86c-0.54,0-0.78-0.22-0.79-0.77
			C62.45,9.9,62.46,8.93,62.46,7.96z"/>
		<path fill="#808080" d="M96.46,7.99c0,0.92,0,1.84,0,2.76c0,0.67-0.23,0.91-0.82,0.9c-0.57-0.01-0.78-0.24-0.78-0.89
			c0-1.75,0-3.5,0-5.25c0-0.8-0.26-1.12-1.04-1.27c-0.31-0.06-0.63-0.11-0.95-0.11c-1.43,0-2.87,0-4.3,0
			c-0.43,0-0.85,0.05-1.25,0.18c-0.59,0.19-0.77,0.43-0.77,1.04c-0.01,1.64,0,3.29,0,4.93c0,0.18,0,0.35-0.01,0.53
			c-0.04,0.61-0.29,0.84-0.86,0.83c-0.54-0.02-0.78-0.26-0.78-0.85c-0.01-1.85-0.01-3.71,0-5.56c0-0.95,0.49-1.59,1.35-1.97
			c0.91-0.41,1.89-0.46,2.86-0.47c1.41-0.02,2.83-0.06,4.24,0.06c0.68,0.06,1.33,0.18,1.94,0.48c0.77,0.38,1.18,0.98,1.18,1.85
			C96.46,6.11,96.46,7.05,96.46,7.99z"/>
		<path fill="#00A8C8" d="M102.81,7.06c-0.03-0.42,0.2-0.64,0.51-0.82c1.64-0.95,3.27-1.91,4.9-2.86c0.29-0.17,0.58-0.34,0.87-0.51
			c0.46-0.25,0.85-0.18,1.07,0.18c0.22,0.37,0.1,0.74-0.36,1c-1.5,0.87-3,1.73-4.51,2.59c-0.05,0.03-0.09,0.05-0.14,0.08
			c-0.52,0.3-0.52,0.3,0.02,0.63c1.46,0.9,2.92,1.79,4.38,2.69c0.17,0.1,0.34,0.2,0.48,0.33c0.25,0.22,0.28,0.56,0.09,0.87
			c-0.19,0.3-0.45,0.46-0.81,0.35c-0.13-0.04-0.26-0.12-0.38-0.19c-1.87-1.17-3.74-2.35-5.62-3.52
			C103.02,7.68,102.75,7.45,102.81,7.06z"/>
		<path fill="#808080" d="M78.19,5.81c0,1.66,0,3.32,0,4.97c0,0.62-0.24,0.86-0.81,0.85c-0.54-0.01-0.78-0.23-0.79-0.77
			c-0.01-3.37-0.01-6.74,0-10.11c0-0.52,0.28-0.77,0.8-0.76c0.52,0.01,0.79,0.25,0.79,0.78C78.19,2.46,78.19,4.14,78.19,5.81z"/>
		<path fill="#808080" d="M100.61,5.82c0,1.66,0,3.32,0,4.98c0,0.65-0.29,0.9-0.92,0.84c-0.36-0.04-0.59-0.22-0.64-0.59
			c-0.03-0.19-0.03-0.39-0.03-0.58c0-3.11,0-6.21,0-9.32c0-0.14-0.01-0.28,0.01-0.42c0.05-0.5,0.36-0.75,0.87-0.72
			c0.49,0.02,0.71,0.26,0.72,0.79C100.61,2.47,100.61,4.14,100.61,5.82z"/>
		<path fill="#808080" d="M82.33,7.19c0,1.22,0.01,2.44,0,3.66c0,0.58-0.25,0.81-0.81,0.79c-0.52-0.01-0.74-0.22-0.76-0.74
			c-0.02-0.71-0.01-1.41-0.01-2.12c0-1.73-0.01-3.46,0-5.19c0-0.67,0.23-0.88,0.85-0.86c0.52,0.02,0.73,0.22,0.74,0.76
			C82.33,4.72,82.33,5.95,82.33,7.19z"/>
		<path fill="#00A8C8" d="M82.32,1.12c0,0.12,0.01,0.25,0,0.37c-0.03,0.49-0.25,0.69-0.73,0.71c-0.52,0.02-0.78-0.18-0.83-0.67
			c-0.02-0.24-0.02-0.49-0.01-0.74c0.03-0.54,0.29-0.78,0.8-0.77c0.52,0.01,0.76,0.25,0.78,0.79C82.32,0.91,82.32,1.01,82.32,1.12
			C82.32,1.12,82.32,1.12,82.32,1.12z"/>
	</g>
</g>
</svg>
